<svg xmlns="http://www.w3.org/2000/svg" width="38" height="38" viewBox="0 0 38 38"><g transform="translate(-29 -40)"><path d="M-14068.664,18.184a9.507,9.507,0,0,1-2.266-1.633,11.467,11.467,0,0,1-4.108,2.184,11.019,11.019,0,0,1-5.318.389,8.992,8.992,0,0,1-4.462-2.15,9.3,9.3,0,0,1-2.715-4.31,9.34,9.34,0,0,1-.209-5.088,9.023,9.023,0,0,1,2.461-4.3,11.031,11.031,0,0,1,4.6-2.694,11.381,11.381,0,0,1,4.795-.513,8.79,8.79,0,0,1,4.073,1.563l-2.67,4.448a4.965,4.965,0,0,0-4.427-.856,4.056,4.056,0,0,0-2.584,2.1,4.607,4.607,0,0,0-.135,3.507,4.6,4.6,0,0,0,2.1,2.814,4.046,4.046,0,0,0,3.316.262,4.632,4.632,0,0,0,2.71-2.253,10.282,10.282,0,0,1-.146-1.756A9.192,9.192,0,0,1-14072.323,5a9.161,9.161,0,0,1,3.659-3.391,11.232,11.232,0,0,1,5.272-1.22,11.229,11.229,0,0,1,5.274,1.22,9.157,9.157,0,0,1,3.66,3.391,9.192,9.192,0,0,1,1.325,4.893,9.2,9.2,0,0,1-1.325,4.9,9.157,9.157,0,0,1-3.66,3.391,11.229,11.229,0,0,1-5.274,1.22A11.232,11.232,0,0,1-14068.664,18.184Zm3.207-12.272a4,4,0,0,0-1.464,1.584,5.054,5.054,0,0,0-.548,2.4,5.048,5.048,0,0,0,.548,2.4,4,4,0,0,0,1.464,1.584,3.924,3.924,0,0,0,2.065.559,3.926,3.926,0,0,0,2.068-.559,4,4,0,0,0,1.464-1.584,5.048,5.048,0,0,0,.548-2.4,5.054,5.054,0,0,0-.548-2.4,4,4,0,0,0-1.464-1.584,3.927,3.927,0,0,0-2.068-.559A3.924,3.924,0,0,0-14065.457,5.912Z" transform="translate(14119 49.001)" fill="#00ffd8" stroke="rgba(0,0,0,0)" stroke-miterlimit="10" stroke-width="1"/><rect width="38" height="38" transform="translate(29 40)" fill="none"/></g></svg>