<svg xmlns="http://www.w3.org/2000/svg" width="221.646" height="33.05" viewBox="0 0 221.646 33.05"><g transform="translate(0 -180.326)"><g style="isolation:isolate"><g style="isolation:isolate"><path d="M33.219,193.33h2.769a3.5,3.5,0,1,1,0,7H33.219Zm2.729,6.536a3.045,3.045,0,1,0,0-6.076H33.729v6.076Z" fill="#fff"/><path d="M45.727,197.838H41.239a2.233,2.233,0,0,0,3.878,1.349l.29.33a2.5,2.5,0,0,1-1.969.849,2.56,2.56,0,0,1-2.688-2.648,2.5,2.5,0,1,1,4.987-.021C45.737,197.737,45.727,197.787,45.727,197.838Zm-4.478-.391h4a2,2,0,0,0-4,0Z" fill="#fff"/><path d="M51.377,195.109l-2.359,5.217h-.509l-2.349-5.217h.529l2.08,4.667,2.1-4.667Z" fill="#fff"/><path d="M56.727,197.838H52.239a2.233,2.233,0,0,0,3.878,1.349l.29.33a2.5,2.5,0,0,1-1.969.849,2.56,2.56,0,0,1-2.688-2.648,2.5,2.5,0,1,1,4.987-.021C56.737,197.737,56.727,197.787,56.727,197.838Zm-4.478-.391h4a2,2,0,0,0-4,0Z" fill="#fff"/><path d="M58.289,192.91h.5v7.416h-.5Z" fill="#fff"/><path d="M60.329,197.718a2.609,2.609,0,1,1,2.609,2.648A2.541,2.541,0,0,1,60.329,197.718Zm4.708,0a2.1,2.1,0,1,0-2.1,2.2A2.07,2.07,0,0,0,65.037,197.718Z" fill="#fff"/><path d="M72.3,197.718a2.522,2.522,0,0,1-2.578,2.648,2.336,2.336,0,0,1-2.119-1.229v3.128h-.5v-7.156h.48v1.229a2.331,2.331,0,0,1,2.139-1.269A2.528,2.528,0,0,1,72.3,197.718Zm-.5,0a2.106,2.106,0,1,0-2.108,2.2A2.077,2.077,0,0,0,71.8,197.718Z" fill="#fff"/><path d="M78.256,197.838H73.769a2.233,2.233,0,0,0,3.878,1.349l.29.33a2.5,2.5,0,0,1-1.969.849,2.561,2.561,0,0,1-2.689-2.648,2.5,2.5,0,0,1,2.5-2.649,2.47,2.47,0,0,1,2.489,2.628C78.267,197.737,78.256,197.787,78.256,197.838Zm-4.477-.391h4a2,2,0,0,0-4,0Z" fill="#fff"/><path d="M84.456,192.91v7.416h-.49V199.1a2.313,2.313,0,0,1-2.138,1.269,2.649,2.649,0,0,1,0-5.3,2.341,2.341,0,0,1,2.129,1.249V192.91Zm-.5,4.808a2.1,2.1,0,1,0-2.1,2.2A2.07,2.07,0,0,0,83.957,197.718Z" fill="#fff"/><path d="M94.335,197.718a2.529,2.529,0,0,1-2.578,2.648,2.332,2.332,0,0,1-2.139-1.269v1.229h-.479V192.91h.5V196.3a2.335,2.335,0,0,1,2.119-1.23A2.523,2.523,0,0,1,94.335,197.718Zm-.5,0a2.106,2.106,0,1,0-2.109,2.2A2.078,2.078,0,0,0,93.836,197.718Z" fill="#fff"/><path d="M99.926,195.109l-2.679,5.927c-.419.959-.939,1.269-1.629,1.269a1.659,1.659,0,0,1-1.209-.47l.25-.38a1.269,1.269,0,0,0,.969.41c.48,0,.83-.219,1.149-.929l.281-.629-2.35-5.2h.53l2.089,4.667,2.089-4.667Z" fill="#fff"/></g><g style="isolation:isolate"><path d="M111.332,191.931l-3.658,8.4h-1.535l-3.67-8.4h1.691l2.795,6.476,2.818-6.476Z" fill="#fff"/><path d="M112.141,196.129a4.526,4.526,0,1,1,4.521,4.317A4.3,4.3,0,0,1,112.141,196.129Zm7.471,0a2.951,2.951,0,1,0-2.95,2.95A2.861,2.861,0,0,0,119.612,196.129Z" fill="#fff"/><path d="M128.937,200.326l-1.715-2.459a2.7,2.7,0,0,1-.324.013H125v2.446h-1.559v-8.4H126.9c2.206,0,3.574,1.128,3.574,2.986a2.684,2.684,0,0,1-1.786,2.65l1.93,2.759Zm-2.111-7.076H125V196.6h1.823c1.367,0,2.075-.624,2.075-1.68S128.193,193.25,126.826,193.25Z" fill="#fff"/><path d="M132.216,196.129a4.526,4.526,0,1,1,4.521,4.317A4.3,4.3,0,0,1,132.216,196.129Zm7.471,0a2.95,2.95,0,1,0-2.95,2.95A2.86,2.86,0,0,0,139.687,196.129Z" fill="#fff"/><path d="M150.979,191.931v8.4H149.7l-4.63-5.684v5.684H143.52v-8.4H144.8l4.63,5.684v-5.684Z" fill="#fff"/><path d="M153.84,191.931H155.4v8.4H153.84Z" fill="#fff"/><path d="M165.728,191.931v8.4h-1.284l-4.63-5.684v5.684h-1.546v-8.4h1.283l4.629,5.684v-5.684Z" fill="#fff"/><path d="M171.792,199.438l.539-1.21a4.657,4.657,0,0,0,2.771.922c1.307,0,1.859-.467,1.859-1.09,0-1.812-4.989-.624-4.989-3.743,0-1.355,1.079-2.506,3.382-2.506a5.3,5.3,0,0,1,2.794.744l-.492,1.211a4.664,4.664,0,0,0-2.314-.66c-1.3,0-1.823.5-1.823,1.139,0,1.787,4.977.624,4.977,3.706,0,1.344-1.092,2.495-3.394,2.495A5.406,5.406,0,0,1,171.792,199.438Z" fill="#fff"/><path d="M182.23,193.25h-2.782v-1.319h7.124v1.319H183.79v7.076h-1.56Z" fill="#fff"/><path d="M188.123,196.668v-4.737h1.56v4.677c0,1.727.779,2.471,2.134,2.471s2.123-.744,2.123-2.471v-4.677h1.536v4.737c0,2.447-1.379,3.778-3.67,3.778S188.123,199.115,188.123,196.668Z" fill="#fff"/><path d="M198.264,191.931h3.67c2.722,0,4.581,1.678,4.581,4.2s-1.859,4.2-4.581,4.2h-3.67Zm3.6,7.076a2.885,2.885,0,1,0,0-5.757h-2.039v5.757Z" fill="#fff"/><path d="M208.775,191.931h1.559v8.4h-1.559Z" fill="#fff"/><path d="M212.6,196.129a4.526,4.526,0,1,1,4.521,4.317A4.3,4.3,0,0,1,212.6,196.129Zm7.471,0a2.951,2.951,0,1,0-2.95,2.95A2.861,2.861,0,0,0,220.075,196.129Z" fill="#fff"/></g><g style="isolation:isolate"><path d="M37.217,212.866v.46H32.41v-.359l2.958-2.939c.83-.83.989-1.319.989-1.849,0-.879-.609-1.429-1.769-1.429a2.487,2.487,0,0,0-2.008.81l-.36-.321a3.082,3.082,0,0,1,2.408-.959c1.37,0,2.249.709,2.249,1.849a2.881,2.881,0,0,1-1.139,2.169l-2.579,2.568Z" fill="#fff"/><path d="M38.14,209.828c0-2.188,1.129-3.548,2.738-3.548s2.739,1.36,2.739,3.548-1.13,3.548-2.739,3.548S38.14,212.017,38.14,209.828Zm4.967,0c0-1.949-.91-3.078-2.229-3.078s-2.229,1.129-2.229,3.078.91,3.078,2.229,3.078S43.107,211.777,43.107,209.828Z" fill="#fff"/><path d="M49.377,212.866v.46H44.569v-.359l2.959-2.939c.829-.83.989-1.319.989-1.849,0-.879-.609-1.429-1.769-1.429a2.489,2.489,0,0,0-2.009.81l-.36-.321a3.085,3.085,0,0,1,2.409-.959c1.369,0,2.249.709,2.249,1.849A2.879,2.879,0,0,1,47.9,210.3l-2.578,2.568Z" fill="#fff"/><path d="M50.3,209.828c0-2.188,1.129-3.548,2.738-3.548s2.739,1.36,2.739,3.548-1.13,3.548-2.739,3.548S50.3,212.017,50.3,209.828Zm4.967,0c0-1.949-.91-3.078-2.229-3.078s-2.228,1.129-2.228,3.078.909,3.078,2.228,3.078S55.267,211.777,55.267,209.828Z" fill="#fff"/></g></g><path d="M15.456,194.534c-.2.127-.394.249-.6.366-.174.1-.138.085-.317.179a11.27,11.27,0,0,0,4.535,1.137,13.883,13.883,0,0,0,1.246-2.69A13.743,13.743,0,0,1,15.456,194.534Z" fill="#00ffd8"/><path d="M20.932,187.766a14.072,14.072,0,0,1-5.192,6.579,12.416,12.416,0,0,0,4.789-1.581c.04-.142.022-.082.058-.226A14.04,14.04,0,0,0,21,189.147Q21,188.448,20.932,187.766Z" fill="#00ffd8"/><path d="M18.89,196.442a13.949,13.949,0,0,1-7.82-2.379l-.022-.014a14.029,14.029,0,0,1-6.127-10.262A14.026,14.026,0,0,0,4,188.795q0,.369.019.734c.009.172.022.343.037.513a13.854,13.854,0,0,0,.326,2.014l.03.126a11.584,11.584,0,0,0,3.909,2.544A13.969,13.969,0,0,1,4.641,193a13.993,13.993,0,0,0,1.815,3.726c.115.167.049.08.171.242a10.6,10.6,0,0,0,3.031,1.1,13.889,13.889,0,0,1-2.58-.5,14.076,14.076,0,0,0,5.577,4.2c.084.035.168.07.253.1q.617-.289,1.2-.635a14.1,14.1,0,0,0,4.85-4.789Z" fill="#00ffd8"/><rect width="25" height="25" transform="translate(0 180.326)" fill="none"/></g></svg>