<?xml version="1.0" encoding="utf-8"?>
<!-- Generator: Adobe Illustrator 24.1.2, SVG Export Plug-In . SVG Version: 6.00 Build 0)  -->
<svg version="1.1" id="Layer_1" xmlns="http://www.w3.org/2000/svg" xmlns:xlink="http://www.w3.org/1999/xlink" x="0px" y="0px"
	 viewBox="0 0 8.6 10.3" style="enable-background:new 0 0 8.6 10.3;" xml:space="preserve">
<style type="text/css">
	.st0{fill:#FFFFFF;}
</style>
<g>
	<g>
		<path class="st0" d="M4.7,10.1l3.7-3.7C8.5,6.3,8.6,6.2,8.6,6c0-0.1-0.1-0.3-0.2-0.4L8.1,5.3c-0.2-0.2-0.6-0.2-0.8,0L5.1,7.5V0.6
			C5.1,0.3,4.9,0,4.5,0c0,0,0,0,0,0H4.1C3.7,0,3.5,0.2,3.5,0.6v6.9L1.3,5.3c-0.2-0.2-0.6-0.2-0.8,0c0,0,0,0,0,0L0.2,5.6
			C0.1,5.7,0,5.9,0,6c0,0.1,0.1,0.3,0.2,0.4l3.7,3.7c0.1,0.1,0.2,0.2,0.4,0.2C4.4,10.3,4.6,10.3,4.7,10.1z"/>
	</g>
</g>
</svg>
