<?xml version="1.0" encoding="utf-8"?>
<!-- Generator: Adobe Illustrator 24.1.2, SVG Export Plug-In . SVG Version: 6.00 Build 0)  -->
<svg version="1.1" id="Layer_1" xmlns="http://www.w3.org/2000/svg" xmlns:xlink="http://www.w3.org/1999/xlink" x="0px" y="0px"
	 viewBox="0 0 10.3 19.7" style="enable-background:new 0 0 10.3 19.7;" xml:space="preserve">
<style type="text/css">
	.st0{fill:#FFFFFF;}
</style>
<g>
	<g>
		<path class="st0" d="M3.5,9.9H1.2v-2h2.3l0.2-3.6c0.1-1.7,1.5-3.1,3.2-3.1h0l2.1,0l0,1.9H7.3c-0.9,0-1.7,0.8-1.7,1.7v3.1H9l-0.2,2
			H5.6v8.6H3.5V9.9z M6.8,11.1h3.1l0.3-4.4H6.8V4.8c0-0.3,0.2-0.5,0.5-0.5h2.9L10.3,0L6.9,0H6.9C4.5,0,2.5,1.9,2.4,4.3L2.3,6.7H0
			v4.4h2.3v8.6h4.6L6.8,11.1z"/>
	</g>
</g>
</svg>
