<?xml version="1.0" encoding="utf-8"?>
<!-- Generator: Adobe Illustrator 24.1.2, SVG Export Plug-In . SVG Version: 6.00 Build 0)  -->
<svg version="1.1" id="Layer_1" xmlns="http://www.w3.org/2000/svg" xmlns:xlink="http://www.w3.org/1999/xlink" x="0px" y="0px"
	 viewBox="0 0 17.6 18" style="enable-background:new 0 0 17.6 18;" xml:space="preserve">
<style type="text/css">
	.st0{fill:#FFFFFF;}
</style>
<g>
	<g>
		<g>
			<g>
				<path class="st0" d="M0.4,5.2h2.4V18H0.4L0.4,5.2z M0,1.5C0,0.7,0.7,0,1.5,0c0.8,0,1.5,0.7,1.5,1.5C3.1,2.4,2.4,3,1.5,3
					C0.7,3,0,2.4,0,1.5L0,1.5z"/>
			</g>
			<g>
				<path class="st0" d="M15.2,9.8c0-2.1-1.1-2.8-2.7-2.8C11,7,9.6,7.9,8.9,8.9V18H6.6V5.2h2.4V7c0.8-1,2.5-2.1,4.5-2.1
					c2.7,0,4.1,1.4,4.1,4.1v9h-2.4L15.2,9.8z"/>
			</g>
		</g>
	</g>
</g>
</svg>
