<svg xmlns="http://www.w3.org/2000/svg" width="18" height="18" viewBox="0 0 18 18"><g><g><g><g><path fill="#fff" d="M12.343 9.055c0 1.991-1.62 3.612-3.612 3.612-1.99 0-3.61-1.62-3.61-3.612 0-1.99 1.62-3.61 3.61-3.61a3.615 3.615 0 0 1 3.612 3.61zm1.312 0a4.93 4.93 0 0 0-4.924-4.924 4.93 4.93 0 0 0-4.924 4.924 4.93 4.93 0 0 0 4.924 4.924 4.929 4.929 0 0 0 4.924-4.924z"/></g></g><g><g><path fill="#fff" d="M14.638 1.505c.938 0 1.701.762 1.701 1.7v11.758c0 .938-.763 1.7-1.7 1.7H2.88c-.938 0-1.701-.762-1.701-1.7V3.205c0-.938.763-1.7 1.7-1.7zm2.868 13.458V3.205A2.87 2.87 0 0 0 14.638.338H2.881A2.87 2.87 0 0 0 .014 3.205v11.758a2.87 2.87 0 0 0 2.867 2.867h11.757a2.87 2.87 0 0 0 2.868-2.867z"/></g></g><g><path fill="#fff" d="M12.187 4.348a1.277 1.277 0 1 1 2.553 0 1.277 1.277 0 0 1-2.553 0z"/></g></g></g></svg>