<svg xmlns="http://www.w3.org/2000/svg" width="16" height="22" viewBox="0 0 16 22"><g><g><g><g><g><path fill="#00ffd8" d="M13.155 11.154l-5.144 8.589-5.278-8.507a6.088 6.088 0 0 1-.917-3.203c0-3.361 2.742-6.103 6.103-6.103 3.36 0 6.099 2.742 6.099 6.103a6.09 6.09 0 0 1-.863 3.121zM7.919.72C3.886.719.605 3.999.605 8.033c0 1.362.377 2.692 1.092 3.846l5.805 9.356a.61.61 0 0 0 .518.288h.005a.61.61 0 0 0 .518-.296l5.658-9.447a7.305 7.305 0 0 0 1.032-3.747C15.233 4 11.952.719 7.919.719z"/><path fill="none" stroke="#00ffd8" stroke-miterlimit="20" stroke-width=".5" d="M13.155 11.154l-5.144 8.589-5.278-8.507a6.088 6.088 0 0 1-.917-3.203c0-3.361 2.742-6.103 6.103-6.103 3.36 0 6.099 2.742 6.099 6.103a6.09 6.09 0 0 1-.863 3.121zM7.919.72C3.886.719.605 3.999.605 8.033c0 1.362.377 2.692 1.092 3.846l5.805 9.356a.61.61 0 0 0 .518.288h.005a.61.61 0 0 0 .518-.296l5.658-9.447a7.305 7.305 0 0 0 1.032-3.747C15.233 4 11.952.719 7.919.719z"/></g></g></g><g><g><g><path fill="#00ffd8" d="M7.923 9.63a2.181 2.181 0 0 1-2.18-2.18c0-1.198.982-2.18 2.18-2.18 1.197 0 2.176.982 2.176 2.18 0 1.183-.953 2.18-2.176 2.18zm0-5.439A3.262 3.262 0 0 0 4.664 7.45a3.254 3.254 0 0 0 3.259 3.258A3.252 3.252 0 0 0 11.18 7.45 3.262 3.262 0 0 0 7.923 4.19z"/><path fill="none" stroke="#00ffd8" stroke-miterlimit="20" stroke-width=".5" d="M7.923 9.63a2.181 2.181 0 0 1-2.18-2.18c0-1.198.982-2.18 2.18-2.18 1.197 0 2.176.982 2.176 2.18 0 1.183-.953 2.18-2.176 2.18zm0-5.439A3.262 3.262 0 0 0 4.664 7.45a3.254 3.254 0 0 0 3.259 3.258A3.252 3.252 0 0 0 11.18 7.45 3.262 3.262 0 0 0 7.923 4.19z"/></g></g></g><g><g/></g></g></g></svg>