<?xml version="1.0" encoding="utf-8"?>
<!-- Generator: Adobe Illustrator 24.1.2, SVG Export Plug-In . SVG Version: 6.00 Build 0)  -->
<svg version="1.1" id="Layer_1" xmlns="http://www.w3.org/2000/svg" xmlns:xlink="http://www.w3.org/1999/xlink" x="0px" y="0px"
	 viewBox="0 0 172 19.4" style="enable-background:new 0 0 172 19.4;" xml:space="preserve">
<style type="text/css">
	.st0{fill:#00FFD8;}
	.st1{fill:#FFFFFF;}
</style>
<g>
	<g>
		<path class="st0" d="M9.1,11.4l1.8-4.6l1.8,4.6L9.1,11.4z M15.6,19h6.3L14,0.8h-6L0,19h6.2l1.2-3.2h6.9L15.6,19z"/>
	</g>
	<g>
		<path class="st0" d="M33.1,9.2c-0.4,0.4-1,0.6-1.9,0.6H29V5.5h2.2c0.8,0,1.5,0.2,1.9,0.6s0.6,0.9,0.6,1.6
			C33.8,8.3,33.6,8.9,33.1,9.2L33.1,9.2z M31.7,0.8h-8.8V19H29v-4.5h2.6c1.7,0,3.1-0.3,4.4-0.8c1.2-0.6,2.2-1.4,2.9-2.4
			c0.7-1,1-2.3,1-3.6s-0.3-2.6-1-3.6c-0.7-1-1.6-1.8-2.9-2.4C34.8,1.1,33.3,0.8,31.7,0.8L31.7,0.8z"/>
	</g>
	<g>
		<path class="st0" d="M52.2,9.2c-0.4,0.4-1,0.6-1.9,0.6h-2.2V5.5h2.2c0.8,0,1.5,0.2,1.9,0.6c0.4,0.4,0.6,0.9,0.6,1.6
			C52.8,8.3,52.6,8.9,52.2,9.2L52.2,9.2z M50.7,0.8h-8.8V19h6.1v-4.5h2.6c1.7,0,3.1-0.3,4.4-0.8c1.2-0.6,2.2-1.4,2.9-2.4
			c0.7-1,1-2.3,1-3.6S58.6,5.1,58,4c-0.7-1-1.6-1.8-2.9-2.4C53.8,1.1,52.4,0.8,50.7,0.8L50.7,0.8z"/>
	</g>
	<g>
		<path class="st1" d="M71.2,6.1c0.4,0.4,0.6,0.9,0.6,1.6c0,0.7-0.2,1.2-0.6,1.6c-0.4,0.4-1,0.6-1.9,0.6h-2.2V5.5h2.2
			C70.2,5.5,70.8,5.7,71.2,6.1L71.2,6.1z M71.9,19h6.5l-3.8-5.6c1.1-0.6,2-1.3,2.5-2.3c0.6-1,0.9-2.1,0.9-3.4c0-1.4-0.3-2.6-1-3.6
			c-0.7-1-1.6-1.8-2.9-2.4c-1.2-0.6-2.7-0.8-4.4-0.8H61V19h6.1v-4.6h1.7L71.9,19z"/>
	</g>
	<g>
		<path class="st1" d="M95.4,14.4V19H80.3V0.8h14.8v4.6h-8.8v2.1H94V12h-7.7v2.4L95.4,14.4z"/>
	</g>
	<g>
		<path class="st0" d="M104.7,19.1c-1.7-0.3-3.2-1-4.5-2.1c-1.3-1.1-2.2-2.6-2.7-4.3c-0.5-1.8-0.6-3.4-0.2-5.1s1.2-3.1,2.5-4.3
			c1.2-1.2,2.8-2.1,4.6-2.7c1.7-0.5,3.3-0.7,4.8-0.5c1.5,0.2,2.9,0.7,4.1,1.6l-2.7,4.4c-1.5-1-3-1.3-4.4-0.9
			c-1.2,0.4-2.1,1.1-2.6,2.1c-0.5,1-0.5,2.2-0.1,3.5c0.4,1.3,1.1,2.3,2.1,2.8c1,0.6,2.1,0.6,3.3,0.3c1.5-0.5,2.5-1.5,3.2-3.2
			l4.7,2.2c-0.5,1.4-1.4,2.6-2.5,3.6c-1.1,1-2.6,1.8-4.2,2.3C108.2,19.3,106.4,19.4,104.7,19.1z"/>
	</g>
	<g>
		<path class="st0" d="M122.9,14.4c-0.8,0-1.4-0.2-2.1-0.6c-0.6-0.4-1.1-0.9-1.5-1.6c-0.4-0.7-0.5-1.5-0.5-2.4s0.2-1.7,0.5-2.4
			c0.4-0.7,0.9-1.2,1.5-1.6c0.6-0.4,1.3-0.6,2.1-0.6c0.8,0,1.4,0.2,2.1,0.6c0.6,0.4,1.1,0.9,1.5,1.6c0.4,0.7,0.5,1.5,0.5,2.4
			s-0.2,1.7-0.5,2.4c-0.4,0.7-0.9,1.2-1.5,1.6C124.4,14.3,123.7,14.5,122.9,14.4z M122.9,19.4c2,0,3.7-0.4,5.3-1.2
			c1.6-0.8,2.8-1.9,3.7-3.4c0.9-1.4,1.3-3.1,1.3-4.9s-0.4-3.4-1.3-4.9c-0.9-1.4-2.1-2.6-3.7-3.4c-1.6-0.8-3.3-1.2-5.3-1.2
			c-2,0-3.7,0.4-5.3,1.2c-1.6,0.8-2.8,1.9-3.7,3.4c-0.9,1.4-1.3,3.1-1.3,4.9s0.4,3.4,1.3,4.9c0.9,1.4,2.1,2.6,3.7,3.4
			C119.2,19,121,19.4,122.9,19.4z"/>
	</g>
	<g>
		<path class="st0" d="M141.6,14.2V5.6h2.6c1.3,0,2.4,0.4,3.2,1.1c0.8,0.8,1.2,1.8,1.2,3.2c0,1.4-0.4,2.4-1.2,3.2
			c-0.8,0.8-1.8,1.1-3.2,1.1L141.6,14.2z M135.4,19h9c2,0,3.8-0.4,5.4-1.1c1.6-0.7,2.8-1.8,3.6-3.2c0.9-1.4,1.3-3,1.3-4.8
			c0-1.9-0.4-3.5-1.3-4.8c-0.9-1.4-2.1-2.4-3.6-3.2s-3.3-1.1-5.4-1.1h-9V19z"/>
	</g>
	<g>
		<path class="st0" d="M172,14.4V19h-15.1V0.8h14.8v4.6h-8.8v2.1h7.7V12h-7.7v2.4L172,14.4z"/>
	</g>
</g>
</svg>
