<svg xmlns="http://www.w3.org/2000/svg" width="22" height="17" viewBox="0 0 22 17"><g><g><g><g><path fill="#00ffd8" d="M20 14.206l-5.605-5.605 5.604-5.605zm-16.793.827l5.636-5.635 1.974 1.957a.585.585 0 0 0 .825-.002l1.926-1.925 5.605 5.605zm-.827-.827V2.991l5.632 5.583zM19.173 2.17l-7.946 7.946-8.014-7.946zM19.415 1H2.965C2 1 1.211 1.787 1.211 2.754v11.694c0 .964.785 1.754 1.754 1.754h16.45c.963 0 1.754-.784 1.754-1.754V2.754c0-.963-.785-1.754-1.754-1.754z"/><path fill="none" stroke="#00ffd8" stroke-miterlimit="20" stroke-width=".5" d="M20 14.206l-5.605-5.605 5.604-5.605zm-16.793.827l5.636-5.635 1.974 1.957a.585.585 0 0 0 .825-.002l1.926-1.925 5.605 5.605zm-.827-.827V2.991l5.632 5.583zM19.173 2.17l-7.946 7.946-8.014-7.946zM19.415 1H2.965C2 1 1.211 1.787 1.211 2.754v11.694c0 .964.785 1.754 1.754 1.754h16.45c.963 0 1.754-.784 1.754-1.754V2.754c0-.963-.785-1.754-1.754-1.754z"/></g></g><g><g/></g></g></g></svg>