<svg xmlns="http://www.w3.org/2000/svg" width="21" height="22" viewBox="0 0 21 22"><g><g><g/><g><g><path fill="#00ffd8" d="M4.715 2.483c.329 0 .638.128.87.361l1.993 1.994a1.232 1.232 0 0 1 0 1.745L6.562 7.601A1.607 1.607 0 0 0 6.3 9.534c.785 1.367 2.547 3.907 5.528 5.559a1.628 1.628 0 0 0 1.935-.26l1-1.002a1.262 1.262 0 0 1 1.742 0l2 2.003c.48.48.48 1.264 0 1.745l-.565.566c-1.042 1.043-2.588 1.421-3.935.958C6.763 16.623 3.582 10.837 2.33 7.61a3.879 3.879 0 0 1 .887-4.138l.627-.628c.233-.233.542-.361.87-.361zm10.467 18.052a5.156 5.156 0 0 0 3.632-1.514l.565-.567a2.457 2.457 0 0 0 .723-1.747c0-.661-.256-1.281-.723-1.748l-1.999-2.003a2.468 2.468 0 0 0-3.49 0l-1 1.001a.387.387 0 0 1-.463.052c-2.82-1.561-4.475-4.082-5.056-5.093a.367.367 0 0 1 .064-.44L8.451 7.46a2.456 2.456 0 0 0 .723-1.747c0-.66-.257-1.282-.723-1.748L6.459 1.969c-.93-.933-2.557-.934-3.488 0l-.628.628a5.119 5.119 0 0 0-1.165 5.461c1.33 3.428 4.712 9.573 12.428 12.216.512.175 1.044.26 1.576.26z"/><path fill="none" stroke="#00ffd8" stroke-miterlimit="20" stroke-width=".5" d="M4.715 2.483c.329 0 .638.128.87.361l1.993 1.994a1.232 1.232 0 0 1 0 1.745L6.562 7.601A1.607 1.607 0 0 0 6.3 9.534c.785 1.367 2.547 3.907 5.528 5.559a1.628 1.628 0 0 0 1.935-.26l1-1.002a1.262 1.262 0 0 1 1.742 0l2 2.003c.48.48.48 1.264 0 1.745l-.565.566c-1.042 1.043-2.588 1.421-3.935.958C6.763 16.623 3.582 10.837 2.33 7.61a3.879 3.879 0 0 1 .887-4.138l.627-.628c.233-.233.542-.361.87-.361zm10.467 18.052a5.156 5.156 0 0 0 3.632-1.514l.565-.567a2.457 2.457 0 0 0 .723-1.747c0-.661-.256-1.281-.723-1.748l-1.999-2.003a2.468 2.468 0 0 0-3.49 0l-1 1.001a.387.387 0 0 1-.463.052c-2.82-1.561-4.475-4.082-5.056-5.093a.367.367 0 0 1 .064-.44L8.451 7.46a2.456 2.456 0 0 0 .723-1.747c0-.66-.257-1.282-.723-1.748L6.459 1.969c-.93-.933-2.557-.934-3.488 0l-.628.628a5.119 5.119 0 0 0-1.165 5.461c1.33 3.428 4.712 9.573 12.428 12.216.512.175 1.044.26 1.576.26z"/></g></g></g></g></svg>