<svg xmlns="http://www.w3.org/2000/svg" width="45" height="45" viewBox="0 0 45 45"><g><g><g><g><path fill="#00ffd8" d="M42.874 39.93H39.93V28.155h2.944zm-8.316 2.944h-12.29a1.472 1.472 0 0 1-1.472-1.472 1.458 1.458 0 0 1 1.35-1.456.751.751 0 0 0 .673-.78.736.736 0 0 0-.736-.708h-.55a1.472 1.472 0 0 1 0-2.943.736.736 0 0 0 0-1.472h-.737a1.472 1.472 0 0 1 0-2.944.736.736 0 0 0 0-1.472h-.736a1.472 1.472 0 0 1 0-2.943h9.567a.734.734 0 0 0 .684-1.01l-1.262-3.153a2.191 2.191 0 0 1-.158-.82v-2.009a1.84 1.84 0 1 1 3.68 0v2.576c0 .094.018.187.052.274l1.472 3.68c.081.2.246.355.451.424l3.912 1.304v12.322zm-18.913-3.77a25.728 25.728 0 0 1-12.992-15.85l3.067-.92A19.055 19.055 0 0 0 13.393 32l1.854 1.191a.736.736 0 0 0 .796 0L17.897 32l.019-.013a2.91 2.91 0 0 0 1.363 3.107c-.446.53-.69 1.2-.69 1.893 0 .103.008.205.02.307a25.9 25.9 0 0 1-2.964 1.811zM1.662 5.89l13.983-4.195L29.627 5.89v1.848l-2.943.883v-.335a.735.735 0 0 0-.534-.708L15.847 4.635a.728.728 0 0 0-.45.014L5.096 8.329a.736.736 0 0 0-.489.693v6.223l-2.944.883zM6.384 19.19L18.359 15.6l6.853-2.056v1.407L6.687 20.508c-.116-.434-.22-.872-.303-1.317zm23.243-8.51l-2.943.884v-1.407l2.943-.883zm0 1.538v1.406l-2.943.884V13.1zm-4.415-1.62v1.408l-19.034 5.71a18.332 18.332 0 0 1-.087-1.381zm0-1.536l-19.134 5.74V9.54l9.592-3.425 9.542 2.725zm-23.49 8.584l2.911-.874c.02.462.055.92.108 1.375l-2.904.871c-.008-.066-.013-.132-.02-.198a25.99 25.99 0 0 1-.094-1.174zm.34 2.956l-.018-.11 2.924-.874c.087.441.192.883.31 1.314l-2.967.89a27.275 27.275 0 0 1-.25-1.22zm15.055 7.552c0 .752.29 1.475.81 2.02-.274.198-.542.404-.824.588l-1.458.933-1.456-.935a17.595 17.595 0 0 1-7.058-8.85l18.06-5.418a17.607 17.607 0 0 1-2.643 8.719H20.06a2.944 2.944 0 0 0-2.943 2.943zm10.565-5.087l.858 2.144h-4.276a19.081 19.081 0 0 0 2.415-9.165l2.948-.885v.953c0 .158-.005.314-.008.472a3.306 3.306 0 0 0-2.2 3.105v2.009c0 .468.09.932.263 1.367zm11.632 3.616l-3.98-1.325-1.291-3.232v-2.435a3.304 3.304 0 0 0-2.949-3.274c0-.101.005-.202.005-.303V5.342a.736.736 0 0 0-.525-.705L15.856.22a.736.736 0 0 0-.423 0L.715 4.637a.736.736 0 0 0-.525.705v10.773c0 .342.023.679.036 1.018.018.497.046.99.09 1.481l.026.245a27.183 27.183 0 0 0 14.974 21.733c.207.104.45.104.658 0a27.542 27.542 0 0 0 3.18-1.873c.231.318.523.587.86.792a2.944 2.944 0 0 0 2.254 4.835h12.51a.738.738 0 0 0 .41-.124l4.227-2.82h4.195c.406 0 .736-.33.736-.736V27.42a.736.736 0 0 0-.736-.736z"/></g></g><g/></g></g></svg>