<svg xmlns="http://www.w3.org/2000/svg" width="45" height="46" viewBox="0 0 45 46"><defs><clipPath id="vnb0a"><path d="M-9 53V-7h60v60z"/></clipPath></defs><g><g><g><g/><g clip-path="url(#vnb0a)"><g><path fill="#00ffd8" d="M17.78 37.746a2.19 2.19 0 1 1-2.453-3.6.73.73 0 0 0 .365-.635v-6.228a.73.73 0 1 1 1.46 0v6.243a.73.73 0 0 0 .366.635 2.19 2.19 0 0 1 .262 3.6zm.833-4.622v-5.841a2.19 2.19 0 0 0-4.381 0v5.841a3.65 3.65 0 0 0 1.321 6.455c.285.071.576.11.87.117a3.65 3.65 0 0 0 2.19-6.572z"/></g><g><path fill="#00ffd8" d="M35.553 43.785l-.146.11-.146-.11a19.824 19.824 0 0 1-7.886-15.188l1.833-.409c2.473-.55 4.67-1.96 6.199-3.98a10.683 10.683 0 0 0 6.192 3.98l1.84.41a19.824 19.824 0 0 1-7.886 15.187zm-5.987-1.898c0 1.21-.981 2.19-2.191 2.19H5.47a2.19 2.19 0 0 1-2.19-2.19v-2.191h6.57a.73.73 0 0 0 .73-.73V25.823a.73.73 0 0 0-.73-.73H3.28v-2.191c0-1.21.98-2.19 2.19-2.19h21.905c1.21 0 2.19.98 2.19 2.19v3.65c-.218.066-.438.132-.664.183l-2.417.548a.73.73 0 0 0-.57.73 21.277 21.277 0 0 0 3.652 11.858zM9.12 33.855H1.819v-2.921H9.12zm-7.302 4.38v-2.92H9.12v2.92zM9.12 26.554v2.92H1.819v-2.92zm13.873-7.302H9.85v-6.572a6.572 6.572 0 0 1 13.143 0zM5.47 12.679c0-6.049 4.903-10.952 10.952-10.952 6.05 0 10.953 4.903 10.953 10.952v6.572h-2.92v-6.572a8.032 8.032 0 0 0-16.065 0v6.572H5.47zm38.86 14.604l-2.417-.533a9.222 9.222 0 0 1-5.842-4.235.73.73 0 0 0-1.255 0 9.164 9.164 0 0 1-3.79 3.475v-3.088a3.65 3.65 0 0 0-2.19-3.344v-6.879c0-6.855-5.558-12.413-12.414-12.413C9.567.266 4.01 5.824 4.01 12.68v6.879a3.65 3.65 0 0 0-2.19 3.344v2.19h-.73a.73.73 0 0 0-.73.73v13.144c0 .403.326.73.73.73h.73v2.19a3.65 3.65 0 0 0 3.65 3.651h21.906a3.65 3.65 0 0 0 3.65-3.65v-.095a21.233 21.233 0 0 0 3.36 3.161l.584.438a.73.73 0 0 0 .876 0l.584-.438a21.285 21.285 0 0 0 8.47-16.94.73.73 0 0 0-.57-.73z"/></g><g><path fill="#00ffd8" d="M39.058 33.855a3.687 3.687 0 1 1-1.804-3.133l-1.971 3.943-1.46-1.979-1.169.876 2.19 2.921a.73.73 0 0 0 .585.292h.066a.73.73 0 0 0 .584-.401l2.314-4.63c.438.616.67 1.355.665 2.11zm.65-4.783l-1.3-.657-.496.985a5.177 5.177 0 1 0 1.146.92z"/></g></g></g></g></g></svg>