<svg xmlns="http://www.w3.org/2000/svg" width="48" height="46" viewBox="0 0 48 46"><defs><clipPath id="y5uka"><path d="M-3 53V-7h60v60z"/></clipPath></defs><g><g><g><g/><g clip-path="url(#y5uka)"><g><path fill="#00ffd8" d="M28.924 39.714c-6.932 0-12.572-5.64-12.572-12.572 0-6.932 5.64-12.572 12.572-12.572 6.933 0 12.572 5.64 12.572 12.572 0 6.932-5.64 12.572-12.572 12.572zm0-27.005c-7.958 0-14.432 6.474-14.432 14.433 0 7.958 6.474 14.433 14.432 14.433 7.959 0 14.433-6.475 14.433-14.433 0-7.959-6.474-14.433-14.433-14.433z"/></g><g><path fill="#00ffd8" d="M28.924 28.172a1.031 1.031 0 0 1 0-2.06 1.031 1.031 0 0 1 0 2.06zm5.886-8.231l-4.608 4.608a2.873 2.873 0 0 0-2.554 0l-2.063-2.062a.93.93 0 0 0-1.316 1.315l2.063 2.063c-.191.385-.299.819-.299 1.277a2.894 2.894 0 0 0 2.891 2.89 2.894 2.894 0 0 0 2.593-4.167l4.473-4.473.135-.135a.93.93 0 0 0-1.315-1.316z"/></g><g><path fill="#00ffd8" d="M38.872 26.223h-.862a.93.93 0 0 0 0 1.86h.862a.93.93 0 0 0 0-1.86z"/></g><g><path fill="#00ffd8" d="M19.839 26.2h-.862a.93.93 0 0 0 0 1.86h.862a.93.93 0 0 0 0-1.86z"/></g><g><path fill="#00ffd8" d="M28.936 18.987a.93.93 0 0 0 .93-.93v-.863a.93.93 0 0 0-1.86 0v.862c0 .514.416.93.93.93z"/></g><g><path fill="#00ffd8" d="M28.913 35.297a.93.93 0 0 0-.93.93v.862a.93.93 0 0 0 1.86 0v-.862a.93.93 0 0 0-.93-.93z"/></g><g><path fill="#00ffd8" d="M28.91 44.132c-9.362 0-16.979-7.617-16.979-16.979 0-9.362 7.617-16.979 16.98-16.979 9.362 0 16.978 7.617 16.978 16.98 0 9.361-7.616 16.978-16.979 16.978zm2.252-37.511v1.921a18.846 18.846 0 0 0-4.504 0V6.621zm-6.904-3.163c0-.719.585-1.303 1.303-1.303h6.699a1.304 1.304 0 0 1 0 2.605H25.56a1.304 1.304 0 0 1-1.303-1.302zm8.765 5.404V6.527a3.168 3.168 0 0 0 2.398-3.179C35.363 1.634 33.914.294 32.2.294h-6.578c-1.715 0-3.163 1.34-3.221 3.054a3.168 3.168 0 0 0 2.397 3.18v2.334a18.783 18.783 0 0 0-10.736 6.862H7.394a.884.884 0 0 0 0 1.768h5.456a18.676 18.676 0 0 0-1.663 3.55H1.615a.884.884 0 0 0 0 1.768h9.058a18.7 18.7 0 0 0-.498 3.733H5.67a.884.884 0 0 0 0 1.767h4.53c.078 1.267.282 2.501.6 3.688H4.504a.884.884 0 1 0 0 1.768h6.544c.105 0 .207-.02.3-.054C14.015 40.824 20.88 45.9 28.91 45.9c10.337 0 18.747-8.41 18.747-18.747 0-8.924-6.269-16.411-14.634-18.29z"/></g></g></g></g></g></svg>