<svg xmlns="http://www.w3.org/2000/svg" width="104" height="42" viewBox="0 0 104 42"><g><g><g><path fill="#8e919f" d="M13.211 12.55c4.377 0 7.362 2.682 7.362 6.7h-15.1c0-4.266 3.894-6.7 7.738-6.7zm.189-3.49C6.09 9.06 0 12.16 0 21.515c0 7.412 4.096 12.079 13.589 12.079 11.174 0 11.89-7.361 11.89-7.361h-5.415s-1.16 3.964-6.806 3.964c-4.598 0-7.905-3.107-7.905-7.46h20.692v-2.732c0-4.307-2.734-10.947-12.645-10.947z"/></g><g><path fill="#8e919f" d="M39.441 12.704c4.961 0 8.116 3.682 8.116 8.623 0 5.299-3.643 8.765-8.08 8.765-5.295 0-8.151-4.135-8.151-8.718 0-4.27 2.563-8.67 8.115-8.67zM26.041 0v28.896c0 1.64-.117 3.943-.117 3.943h5.164s.185-1.654.185-3.165c0 0 2.551 3.991 9.49 3.991 7.305 0 12.267-5.072 12.267-12.339 0-6.76-4.558-12.197-12.256-12.197-7.209 0-9.449 3.893-9.449 3.893V0z"/></g><g><path fill="#8e919f" d="M71.904 23.403c0 1.97-1.216 6.865-8.37 6.865-3.917 0-5.598-1.955-5.598-4.222.001-4.126 5.658-4.153 13.968-4.153zM65.864 9.06c-10.995 0-11.701 6.021-11.701 6.983h5.473s.287-3.515 5.851-3.515c3.615 0 6.417 1.655 6.417 4.837v1.132h-6.417c-8.519 0-13.022 2.492-13.022 7.55 0 4.976 4.16 7.684 9.785 7.684 7.664 0 10.132-4.234 10.132-4.234 0 1.684.13 3.344.13 3.344h4.865s-.189-2.058-.189-3.373V18.09c0-7.46-6.017-9.03-11.324-9.03z"/></g><g><path fill="#8e919f" d="M74.241 10.003h6.157l8.837 17.705 8.817-17.705h5.578l-16.06 31.52h-5.85l4.633-8.787z"/></g></g><g><g><path fill="#8e919f" d="M13.211 12.55c4.377 0 7.362 2.682 7.362 6.7h-15.1c0-4.266 3.894-6.7 7.738-6.7zm.189-3.49C6.09 9.06 0 12.16 0 21.515c0 7.412 4.096 12.079 13.589 12.079 11.174 0 11.89-7.361 11.89-7.361h-5.415s-1.16 3.964-6.806 3.964c-4.598 0-7.905-3.107-7.905-7.46h20.692v-2.732c0-4.307-2.734-10.947-12.645-10.947z"/></g><g><path fill="#8e919f" d="M39.441 12.704c4.961 0 8.116 3.682 8.116 8.623 0 5.299-3.643 8.765-8.08 8.765-5.295 0-8.151-4.135-8.151-8.718 0-4.27 2.563-8.67 8.115-8.67zM26.041 0v28.896c0 1.64-.117 3.943-.117 3.943h5.164s.185-1.654.185-3.165c0 0 2.551 3.991 9.49 3.991 7.305 0 12.267-5.072 12.267-12.339 0-6.76-4.558-12.197-12.256-12.197-7.209 0-9.449 3.893-9.449 3.893V0z"/></g><g><path fill="#8e919f" d="M71.904 23.403c0 1.97-1.216 6.865-8.37 6.865-3.917 0-5.598-1.955-5.598-4.222.001-4.126 5.658-4.153 13.968-4.153zM65.864 9.06c-10.995 0-11.701 6.021-11.701 6.983h5.473s.287-3.515 5.851-3.515c3.615 0 6.417 1.655 6.417 4.837v1.132h-6.417c-8.519 0-13.022 2.492-13.022 7.55 0 4.976 4.16 7.684 9.785 7.684 7.664 0 10.132-4.234 10.132-4.234 0 1.684.13 3.344.13 3.344h4.865s-.189-2.058-.189-3.373V18.09c0-7.46-6.017-9.03-11.324-9.03z"/></g><g><path fill="#8e919f" d="M74.241 10.003h6.157l8.837 17.705 8.817-17.705h5.578l-16.06 31.52h-5.85l4.633-8.787z"/></g></g></g></svg>