<svg xmlns="http://www.w3.org/2000/svg" width="88" height="29" viewBox="0 0 88 29"><g><g><path fill="#8e919f" d="M21.746 16.364v12.6h-7V17.296c0-1.027-.84-1.867-1.867-1.867H8.804c-1.027 0-1.866.84-1.866 1.867v11.635H0V.031h6.969v9.426s.777-.404 2.364-.404h4.48c4.386 0 7.933 2.022 7.933 7.31zm66.046-7.311v12.226c0 4.511-2.644 7.653-7 7.653h-6.844c-4.728 0-7.933-2.644-7.933-7.653V9.053h7v11.666c0 1.027.84 1.867 1.867 1.867h4.075c1.027 0 1.867-.84 1.867-1.867V9.053zm-46.322 0h7v12.226c0 4.511-2.645 7.653-7 7.653h-6.845c-4.728 0-7.933-2.644-7.933-7.653V9.053h7v11.666c0 1.027.84 1.867 1.867 1.867h4.075c1.027 0 1.867-.84 1.867-1.867 0-.373 0-11.666-.031-11.666zM53.79 0h6.999v28.963h-7V0z"/></g><g><path fill="#8e919f" d="M21.746 16.364v12.6h-7V17.296c0-1.027-.84-1.867-1.867-1.867H8.804c-1.027 0-1.866.84-1.866 1.867v11.635H0V.031h6.969v9.426s.777-.404 2.364-.404h4.48c4.386 0 7.933 2.022 7.933 7.31zm66.046-7.311v12.226c0 4.511-2.644 7.653-7 7.653h-6.844c-4.728 0-7.933-2.644-7.933-7.653V9.053h7v11.666c0 1.027.84 1.867 1.867 1.867h4.075c1.027 0 1.867-.84 1.867-1.867V9.053zm-46.322 0h7v12.226c0 4.511-2.645 7.653-7 7.653h-6.845c-4.728 0-7.933-2.644-7.933-7.653V9.053h7v11.666c0 1.027.84 1.867 1.867 1.867h4.075c1.027 0 1.867-.84 1.867-1.867 0-.373 0-11.666-.031-11.666zM53.79 0h6.999v28.963h-7V0z"/></g></g></svg>