<svg xmlns="http://www.w3.org/2000/svg" width="146" height="44" viewBox="0 0 146 44"><g><g><path fill="#8e919f" d="M143.935 18.629c0 .257-.187.397-.491.397h-.608v-.795h.608c.304 0 .49.14.49.398zm-.094.724a.778.778 0 0 0 .608-.748c0-.49-.374-.794-.959-.794h-1.122v2.477h.468v-.865h.514l.608.865h.56l-.677-.935zm1.613-.234a2.13 2.13 0 0 1-2.15 2.15c-1.216 0-2.128-.957-2.128-2.15a2.13 2.13 0 0 1 2.15-2.15c1.216 0 2.128.958 2.128 2.15zm.234 0a2.38 2.38 0 0 0-2.385-2.384 2.38 2.38 0 0 0-2.384 2.384 2.38 2.38 0 0 0 2.384 2.385 2.394 2.394 0 0 0 2.385-2.385zm-31.976-9.068a2.429 2.429 0 0 0-2.43 2.43 2.429 2.429 0 0 0 2.43 2.431 2.429 2.429 0 0 0 2.431-2.43 2.429 2.429 0 0 0-2.43-2.431zm1.683 6.708h-3.389a.26.26 0 0 0-.257.257V31.74c0 .14.117.257.257.257h3.39a.26.26 0 0 0 .257-.257V17.016c-.024-.14-.117-.257-.258-.257zm7.503-.444c0-1.38.538-1.987 1.707-1.987.7 0 1.262.14 1.893.35.07.024.163.024.21-.023.07-.047.094-.117.094-.21v-2.852c0-.117-.07-.21-.164-.234-.678-.21-1.52-.397-2.805-.397-3.108 0-4.768 1.753-4.768 5.072v.725h-1.613a.26.26 0 0 0-.257.257v2.922c0 .14.117.257.257.257h1.613v11.593c0 .14.117.257.257.257h3.366a.26.26 0 0 0 .257-.257V20.171h3.155l4.839 11.594c-.538 1.215-1.099 1.449-1.823 1.449-.585 0-1.216-.187-1.87-.538-.07-.023-.14-.047-.187-.023a.21.21 0 0 0-.14.14l-1.146 2.501a.269.269 0 0 0 .117.327c1.192.655 2.267.935 3.6.935 2.5 0 3.88-1.169 5.095-4.3l5.867-15.147a.277.277 0 0 0-.024-.233.245.245 0 0 0-.21-.117h-3.506c-.117 0-.21.07-.234.163l-3.6 10.285-3.95-10.285c-.046-.093-.116-.163-.233-.163l-5.797.023zm-12.949.444h-3.716v-3.787c0-.14-.117-.257-.234-.257h-3.389a.26.26 0 0 0-.257.257v3.81h-1.613c-.14 0-.234.117-.234.257v2.899c0 .14.117.257.234.257h1.613v7.503c0 3.038 1.52 4.58 4.488 4.58 1.215 0 2.22-.256 3.155-.794a.245.245 0 0 0 .117-.21v-2.782a.245.245 0 0 0-.117-.21.212.212 0 0 0-.234 0 4.279 4.279 0 0 1-1.986.467c-1.076 0-1.566-.49-1.566-1.589v-6.989h3.716c.14 0 .234-.117.234-.257v-2.898c.023-.14-.07-.257-.21-.257zM92.14 28.913c-2.431 0-4.254-1.94-4.254-4.534 0-2.595 1.753-4.465 4.184-4.465 2.43 0 4.277 1.94 4.277 4.535 0 2.57-1.776 4.464-4.207 4.464zm0-12.458c-4.558 0-8.111 3.506-8.111 7.97 0 4.418 3.553 7.9 8.064 7.9 4.558 0 8.134-3.482 8.134-7.946 0-4.441-3.553-7.924-8.087-7.924zm-13.113 7.924c0 2.64-1.636 4.487-3.973 4.487-2.314 0-4.044-1.94-4.044-4.487 0-2.572 1.753-4.488 4.044-4.488 2.314 0 3.973 1.893 3.973 4.488zm-3.179-7.924c-1.893 0-3.459.748-4.745 2.29v-1.73c0-.14-.116-.256-.233-.256h-3.39c-.14 0-.233.117-.233.257v19.19c0 .14.117.257.234.257h3.389c.14 0 .233-.117.233-.257v-6.054c1.286 1.449 2.852 2.15 4.745 2.15 3.53 0 7.106-2.711 7.106-7.923.023-5.213-3.576-7.924-7.106-7.924zM59.44 20.17c-3.763-.888-4.44-1.542-4.44-2.851 0-1.262 1.168-2.104 2.944-2.104 1.706 0 3.39.631 5.166 1.963.046.047.117.047.187.047.07 0 .117-.047.163-.093l1.847-2.595c.07-.117.047-.257-.047-.327-2.104-1.683-4.464-2.5-7.246-2.5-4.067 0-6.918 2.453-6.918 5.936 0 3.74 2.454 5.072 6.708 6.1 3.6.842 4.207 1.52 4.207 2.782 0 1.379-1.239 2.244-3.225 2.244-2.198 0-3.997-.748-6.007-2.478a.265.265 0 0 0-.187-.07c-.07 0-.117.047-.164.094l-2.057 2.454c-.093.093-.07.257.023.35 2.338 2.08 5.213 3.18 8.321 3.18 4.395 0 7.223-2.408 7.223-6.101-.023-3.18-1.893-4.909-6.498-6.03.023 0 0 0 0 0zm-24.66-.794c-7.058-4.184-18.675-4.582-25.383-2.525a2.045 2.045 0 0 1-2.548-1.355 2.045 2.045 0 0 1 1.356-2.548c7.713-2.338 20.546-1.893 28.656 2.922a2.055 2.055 0 0 1 .725 2.804c-.585.959-1.847 1.286-2.805.702zm-.233 6.194a1.706 1.706 0 0 1-2.337.56c-5.89-3.599-14.842-4.65-21.784-2.547-.912.28-1.847-.234-2.127-1.145-.28-.912.233-1.847 1.145-2.127 7.924-2.408 17.81-1.24 24.542 2.898.795.514 1.052 1.566.561 2.36zm-2.688 5.936c-.397.632-1.239.842-1.87.445-5.118-3.132-11.593-3.834-19.19-2.104a1.382 1.382 0 0 1-1.636-1.028 1.364 1.364 0 0 1 1.029-1.637c8.32-1.893 15.473-1.075 21.223 2.431.655.421.842 1.262.444 1.893zM21.854 0C9.794 0 0 9.793 0 21.854s9.794 21.854 21.854 21.854c12.061 0 21.855-9.77 21.855-21.854C43.709 9.794 33.915 0 21.854 0z"/></g><g><path fill="#8e919f" d="M143.935 18.629c0 .257-.187.397-.491.397h-.608v-.795h.608c.304 0 .49.14.49.398zm-.094.724a.778.778 0 0 0 .608-.748c0-.49-.374-.794-.959-.794h-1.122v2.477h.468v-.865h.514l.608.865h.56l-.677-.935zm1.613-.234a2.13 2.13 0 0 1-2.15 2.15c-1.216 0-2.128-.957-2.128-2.15a2.13 2.13 0 0 1 2.15-2.15c1.216 0 2.128.958 2.128 2.15zm.234 0a2.38 2.38 0 0 0-2.385-2.384 2.38 2.38 0 0 0-2.384 2.384 2.38 2.38 0 0 0 2.384 2.385 2.394 2.394 0 0 0 2.385-2.385zm-31.976-9.068a2.429 2.429 0 0 0-2.43 2.43 2.429 2.429 0 0 0 2.43 2.431 2.429 2.429 0 0 0 2.431-2.43 2.429 2.429 0 0 0-2.43-2.431zm1.683 6.708h-3.389a.26.26 0 0 0-.257.257V31.74c0 .14.117.257.257.257h3.39a.26.26 0 0 0 .257-.257V17.016c-.024-.14-.117-.257-.258-.257zm7.503-.444c0-1.38.538-1.987 1.707-1.987.7 0 1.262.14 1.893.35.07.024.163.024.21-.023.07-.047.094-.117.094-.21v-2.852c0-.117-.07-.21-.164-.234-.678-.21-1.52-.397-2.805-.397-3.108 0-4.768 1.753-4.768 5.072v.725h-1.613a.26.26 0 0 0-.257.257v2.922c0 .14.117.257.257.257h1.613v11.593c0 .14.117.257.257.257h3.366a.26.26 0 0 0 .257-.257V20.171h3.155l4.839 11.594c-.538 1.215-1.099 1.449-1.823 1.449-.585 0-1.216-.187-1.87-.538-.07-.023-.14-.047-.187-.023a.21.21 0 0 0-.14.14l-1.146 2.501a.269.269 0 0 0 .117.327c1.192.655 2.267.935 3.6.935 2.5 0 3.88-1.169 5.095-4.3l5.867-15.147a.277.277 0 0 0-.024-.233.245.245 0 0 0-.21-.117h-3.506c-.117 0-.21.07-.234.163l-3.6 10.285-3.95-10.285c-.046-.093-.116-.163-.233-.163l-5.797.023zm-12.949.444h-3.716v-3.787c0-.14-.117-.257-.234-.257h-3.389a.26.26 0 0 0-.257.257v3.81h-1.613c-.14 0-.234.117-.234.257v2.899c0 .14.117.257.234.257h1.613v7.503c0 3.038 1.52 4.58 4.488 4.58 1.215 0 2.22-.256 3.155-.794a.245.245 0 0 0 .117-.21v-2.782a.245.245 0 0 0-.117-.21.212.212 0 0 0-.234 0 4.279 4.279 0 0 1-1.986.467c-1.076 0-1.566-.49-1.566-1.589v-6.989h3.716c.14 0 .234-.117.234-.257v-2.898c.023-.14-.07-.257-.21-.257zM92.14 28.913c-2.431 0-4.254-1.94-4.254-4.534 0-2.595 1.753-4.465 4.184-4.465 2.43 0 4.277 1.94 4.277 4.535 0 2.57-1.776 4.464-4.207 4.464zm0-12.458c-4.558 0-8.111 3.506-8.111 7.97 0 4.418 3.553 7.9 8.064 7.9 4.558 0 8.134-3.482 8.134-7.946 0-4.441-3.553-7.924-8.087-7.924zm-13.113 7.924c0 2.64-1.636 4.487-3.973 4.487-2.314 0-4.044-1.94-4.044-4.487 0-2.572 1.753-4.488 4.044-4.488 2.314 0 3.973 1.893 3.973 4.488zm-3.179-7.924c-1.893 0-3.459.748-4.745 2.29v-1.73c0-.14-.116-.256-.233-.256h-3.39c-.14 0-.233.117-.233.257v19.19c0 .14.117.257.234.257h3.389c.14 0 .233-.117.233-.257v-6.054c1.286 1.449 2.852 2.15 4.745 2.15 3.53 0 7.106-2.711 7.106-7.923.023-5.213-3.576-7.924-7.106-7.924zM59.44 20.17c-3.763-.888-4.44-1.542-4.44-2.851 0-1.262 1.168-2.104 2.944-2.104 1.706 0 3.39.631 5.166 1.963.046.047.117.047.187.047.07 0 .117-.047.163-.093l1.847-2.595c.07-.117.047-.257-.047-.327-2.104-1.683-4.464-2.5-7.246-2.5-4.067 0-6.918 2.453-6.918 5.936 0 3.74 2.454 5.072 6.708 6.1 3.6.842 4.207 1.52 4.207 2.782 0 1.379-1.239 2.244-3.225 2.244-2.198 0-3.997-.748-6.007-2.478a.265.265 0 0 0-.187-.07c-.07 0-.117.047-.164.094l-2.057 2.454c-.093.093-.07.257.023.35 2.338 2.08 5.213 3.18 8.321 3.18 4.395 0 7.223-2.408 7.223-6.101-.023-3.18-1.893-4.909-6.498-6.03.023 0 0 0 0 0zm-24.66-.794c-7.058-4.184-18.675-4.582-25.383-2.525a2.045 2.045 0 0 1-2.548-1.355 2.045 2.045 0 0 1 1.356-2.548c7.713-2.338 20.546-1.893 28.656 2.922a2.055 2.055 0 0 1 .725 2.804c-.585.959-1.847 1.286-2.805.702zm-.233 6.194a1.706 1.706 0 0 1-2.337.56c-5.89-3.599-14.842-4.65-21.784-2.547-.912.28-1.847-.234-2.127-1.145-.28-.912.233-1.847 1.145-2.127 7.924-2.408 17.81-1.24 24.542 2.898.795.514 1.052 1.566.561 2.36zm-2.688 5.936c-.397.632-1.239.842-1.87.445-5.118-3.132-11.593-3.834-19.19-2.104a1.382 1.382 0 0 1-1.636-1.028 1.364 1.364 0 0 1 1.029-1.637c8.32-1.893 15.473-1.075 21.223 2.431.655.421.842 1.262.444 1.893zM21.854 0C9.794 0 0 9.793 0 21.854s9.794 21.854 21.854 21.854c12.061 0 21.855-9.77 21.855-21.854C43.709 9.794 33.915 0 21.854 0z"/></g></g></svg>