<svg xmlns="http://www.w3.org/2000/svg" width="77" height="55" viewBox="0 0 77 55"><g><g><path fill="#8e919f" d="M17.159 37.948c3.892-3.346 15.426-12.815 20.932-12.815 5.482 0 17.04 9.493 20.932 12.815.023-.522.047-1.163.047-1.827 0-1.4-1.163-2.753-1.163-2.753-5.91-6.55-15.9-16.233-19.603-16.59h-.19c0 4.463.143 4.273-2.492 5.388-.26.119-9.113 3.845-17.538 11.487-1.02 1.163-.925 2.326-.925 2.326a27.23 27.23 0 0 0 0 1.97zM38.09 26.462c-5.934 0-21.004 13.314-21.17 13.456-.166.119-.308.166-.427.166-.071 0-.119-.024-.19-.047-.356-.166-.38-.807-.403-.878 0-.024-.095-1.52-.095-3.014 0-1.923 1.448-3.584 1.495-3.631.617-.689 15.402-17.017 20.766-17.017 5.363 0 20.149 16.328 20.766 17.017.071.07 1.495 1.708 1.495 3.654 0 1.496-.095 3.014-.095 3.014 0 .072-.047.712-.38.878a.447.447 0 0 1-.19.048c-.142 0-.284-.071-.45-.19-.12-.166-15.19-13.456-21.122-13.456zm-20.956-6.005c0 .712.024 1.187.047 1.97 3.892-3.322 15.426-12.815 20.909-12.815 5.482 0 17.016 9.469 20.908 12.815a40.49 40.49 0 0 0 .047-1.827c0-1.4-1.163-2.753-1.163-2.753-5.909-6.55-15.877-16.233-19.579-16.565h-.19c0 4.461.143 4.248-2.492 5.363-.26.119-9.113 3.845-17.538 11.487-1.044 1.186-.95 2.325-.95 2.325zm-1.282.167c0-1.923 1.448-3.56 1.495-3.631C17.965 16.304 32.751 0 38.091 0c5.34 0 20.125 16.304 20.742 16.993.071.07 1.495 1.708 1.495 3.63 0 1.496-.095 2.99-.095 3.015 0 .07-.047.712-.38.878a.447.447 0 0 1-.19.047c-.142 0-.284-.071-.45-.19-.143-.142-15.19-13.432-21.122-13.432-5.934 0-20.98 13.29-21.146 13.432-.166.119-.309.166-.427.166-.071 0-.119-.023-.19-.047-.356-.166-.38-.783-.38-.854 0-.024-.095-1.52-.095-3.014zM28.265 47.25v1.116h-3.63a.365.365 0 0 0-.357.356v5.245H21.81c-.142 0-.26-.143-.26-.261v-3.798c0-.735-.618-1.518-1.52-1.518h-2.42v-1.116c0-.118.094-.26.26-.26h10.134c.143 0 .261.118.261.236zm9.47 1.994c0-.546-.475-1.02-1.02-1.02h-3.632c-.38 0-.664.26-.664.64v1.4h4.271c.57.024 1.045-.45 1.045-1.02zm2.705 4.746h-2.705c-.072-.973-.902-2.468-2.967-2.468h-2.326v2.468h-2.468a.263.263 0 0 1-.261-.26v-5.293c0-.807.617-1.424 1.424-1.424h6.55c1.709 0 2.753 1.163 2.753 2.255 0 1.02-.807 1.898-1.97 2.16h-.023v.094l.023.024c.19.071 1.923.783 1.97 2.444zm10.514-3.512c0-1.614-1.4-2.563-2.73-2.563-.545-.024-1.186 0-1.21 0-1.329 0-2.73.95-2.73 2.563 0 1.614 1.425 2.61 2.73 2.61.522.024 1.044 0 1.187 0 1.329 0 2.753-.996 2.753-2.61zm2.705 0c0 1.994-1.875 3.607-4.153 3.607-1.875.048-3.774 0-3.797 0-2.279 0-4.153-1.613-4.153-3.607 0-1.97 1.85-3.56 4.153-3.56.023 0 1.922-.047 3.797 0 2.326.048 4.153 1.614 4.153 3.56zm4.39 2.278h6.408v.997a.27.27 0 0 1-.07.19.27.27 0 0 1-.19.071h-7.809c-.902 0-1.424-.736-1.424-1.424V47.3c0-.285.238-.285.261-.285h8.924s.142-.024.237.071c.048.048.071.095.071.19v.973h-6.36a.451.451 0 0 0-.308.119c-.095.095-.095.237-.095.237v1.21h5.553v1.235h-5.553v1.329c0 .213.142.356.356.356zm18.132-2.183v3.417h-2.326c-.284 0-.284-.26-.284-.26v-3.323c0-1.472-1.116-2.16-1.875-2.16h-2.73a.348.348 0 0 0-.355.356v5.387h-2.469c-.118 0-.237-.094-.237-.26v-6.456c0-.237.237-.26.332-.26h5.91c2.254 0 4.034 1.565 4.034 3.559zm-17.087-6.076c.26.143.45.356.712.356.285 0 .498-.19.735-.356.262-.142.594-.237.95-.237.38 0 .688.071.95.237.26.143.403.333.403.57 0 .214-.12.404-.38.57-.261.166-.57.237-.95.237a1.87 1.87 0 0 1-.949-.237c-.237-.143-.474-.356-.735-.356-.262 0-.523.237-.76.38-.237.142-.57.213-.925.213-.38 0-.689-.071-.95-.237-.26-.143-.403-.333-.403-.57 0-.214.142-.403.403-.57.261-.166.57-.237.95-.237s.688.071.949.237zM5.458 47.892c-1.352 0-2.729.973-2.752 2.587v.024c0 1.637 1.376 2.61 2.729 2.61 0 0 .664.024 1.21 0 .997 0 1.922-.522 2.397-1.352.071-.095.142-.143.237-.143h2.635c-.594 1.543-1.994 2.445-3.94 2.492-2.088.048-2.254.048-3.868 0C1.756 54.04 0 52.473 0 50.48c0-.973.427-1.875 1.21-2.563.807-.712 1.638-.997 2.943-1.068 1.116-.071 1.685-.047 2.967-.024l.807.024c1.827.024 3.417 1.044 3.987 2.492H9.256c-.119 0-.19-.095-.214-.119-.475-.807-1.424-1.329-2.397-1.329-.498-.024-1.044 0-1.187 0zm10.68-.617v6.716h-1.21c-.83 0-1.068 0-1.14.024l.024-.024h-.142c-.119 0-.261-.118-.261-.26v-6.456c0-.142.118-.26.26-.26h2.208c.142 0 .261.118.261.26z"/></g><g><path fill="#8e919f" d="M17.159 37.948c3.892-3.346 15.426-12.815 20.932-12.815 5.482 0 17.04 9.493 20.932 12.815.023-.522.047-1.163.047-1.827 0-1.4-1.163-2.753-1.163-2.753-5.91-6.55-15.9-16.233-19.603-16.59h-.19c0 4.463.143 4.273-2.492 5.388-.26.119-9.113 3.845-17.538 11.487-1.02 1.163-.925 2.326-.925 2.326a27.23 27.23 0 0 0 0 1.97zM38.09 26.462c-5.934 0-21.004 13.314-21.17 13.456-.166.119-.308.166-.427.166-.071 0-.119-.024-.19-.047-.356-.166-.38-.807-.403-.878 0-.024-.095-1.52-.095-3.014 0-1.923 1.448-3.584 1.495-3.631.617-.689 15.402-17.017 20.766-17.017 5.363 0 20.149 16.328 20.766 17.017.071.07 1.495 1.708 1.495 3.654 0 1.496-.095 3.014-.095 3.014 0 .072-.047.712-.38.878a.447.447 0 0 1-.19.048c-.142 0-.284-.071-.45-.19-.12-.166-15.19-13.456-21.122-13.456zm-20.956-6.005c0 .712.024 1.187.047 1.97 3.892-3.322 15.426-12.815 20.909-12.815 5.482 0 17.016 9.469 20.908 12.815a40.49 40.49 0 0 0 .047-1.827c0-1.4-1.163-2.753-1.163-2.753-5.909-6.55-15.877-16.233-19.579-16.565h-.19c0 4.461.143 4.248-2.492 5.363-.26.119-9.113 3.845-17.538 11.487-1.044 1.186-.95 2.325-.95 2.325zm-1.282.167c0-1.923 1.448-3.56 1.495-3.631C17.965 16.304 32.751 0 38.091 0c5.34 0 20.125 16.304 20.742 16.993.071.07 1.495 1.708 1.495 3.63 0 1.496-.095 2.99-.095 3.015 0 .07-.047.712-.38.878a.447.447 0 0 1-.19.047c-.142 0-.284-.071-.45-.19-.143-.142-15.19-13.432-21.122-13.432-5.934 0-20.98 13.29-21.146 13.432-.166.119-.309.166-.427.166-.071 0-.119-.023-.19-.047-.356-.166-.38-.783-.38-.854 0-.024-.095-1.52-.095-3.014zM28.265 47.25v1.116h-3.63a.365.365 0 0 0-.357.356v5.245H21.81c-.142 0-.26-.143-.26-.261v-3.798c0-.735-.618-1.518-1.52-1.518h-2.42v-1.116c0-.118.094-.26.26-.26h10.134c.143 0 .261.118.261.236zm9.47 1.994c0-.546-.475-1.02-1.02-1.02h-3.632c-.38 0-.664.26-.664.64v1.4h4.271c.57.024 1.045-.45 1.045-1.02zm2.705 4.746h-2.705c-.072-.973-.902-2.468-2.967-2.468h-2.326v2.468h-2.468a.263.263 0 0 1-.261-.26v-5.293c0-.807.617-1.424 1.424-1.424h6.55c1.709 0 2.753 1.163 2.753 2.255 0 1.02-.807 1.898-1.97 2.16h-.023v.094l.023.024c.19.071 1.923.783 1.97 2.444zm10.514-3.512c0-1.614-1.4-2.563-2.73-2.563-.545-.024-1.186 0-1.21 0-1.329 0-2.73.95-2.73 2.563 0 1.614 1.425 2.61 2.73 2.61.522.024 1.044 0 1.187 0 1.329 0 2.753-.996 2.753-2.61zm2.705 0c0 1.994-1.875 3.607-4.153 3.607-1.875.048-3.774 0-3.797 0-2.279 0-4.153-1.613-4.153-3.607 0-1.97 1.85-3.56 4.153-3.56.023 0 1.922-.047 3.797 0 2.326.048 4.153 1.614 4.153 3.56zm4.39 2.278h6.408v.997a.27.27 0 0 1-.07.19.27.27 0 0 1-.19.071h-7.809c-.902 0-1.424-.736-1.424-1.424V47.3c0-.285.238-.285.261-.285h8.924s.142-.024.237.071c.048.048.071.095.071.19v.973h-6.36a.451.451 0 0 0-.308.119c-.095.095-.095.237-.095.237v1.21h5.553v1.235h-5.553v1.329c0 .213.142.356.356.356zm18.132-2.183v3.417h-2.326c-.284 0-.284-.26-.284-.26v-3.323c0-1.472-1.116-2.16-1.875-2.16h-2.73a.348.348 0 0 0-.355.356v5.387h-2.469c-.118 0-.237-.094-.237-.26v-6.456c0-.237.237-.26.332-.26h5.91c2.254 0 4.034 1.565 4.034 3.559zm-17.087-6.076c.26.143.45.356.712.356.285 0 .498-.19.735-.356.262-.142.594-.237.95-.237.38 0 .688.071.95.237.26.143.403.333.403.57 0 .214-.12.404-.38.57-.261.166-.57.237-.95.237a1.87 1.87 0 0 1-.949-.237c-.237-.143-.474-.356-.735-.356-.262 0-.523.237-.76.38-.237.142-.57.213-.925.213-.38 0-.689-.071-.95-.237-.26-.143-.403-.333-.403-.57 0-.214.142-.403.403-.57.261-.166.57-.237.95-.237s.688.071.949.237zM5.458 47.892c-1.352 0-2.729.973-2.752 2.587v.024c0 1.637 1.376 2.61 2.729 2.61 0 0 .664.024 1.21 0 .997 0 1.922-.522 2.397-1.352.071-.095.142-.143.237-.143h2.635c-.594 1.543-1.994 2.445-3.94 2.492-2.088.048-2.254.048-3.868 0C1.756 54.04 0 52.473 0 50.48c0-.973.427-1.875 1.21-2.563.807-.712 1.638-.997 2.943-1.068 1.116-.071 1.685-.047 2.967-.024l.807.024c1.827.024 3.417 1.044 3.987 2.492H9.256c-.119 0-.19-.095-.214-.119-.475-.807-1.424-1.329-2.397-1.329-.498-.024-1.044 0-1.187 0zm10.68-.617v6.716h-1.21c-.83 0-1.068 0-1.14.024l.024-.024h-.142c-.119 0-.261-.118-.261-.26v-6.456c0-.142.118-.26.26-.26h2.208c.142 0 .261.118.261.26z"/></g></g></svg>