<svg xmlns="http://www.w3.org/2000/svg" width="77" height="51" viewBox="0 0 77 51"><g><g><g><g><path fill="#8e919f" d="M76.205 14.339c-3.588-17.516-37.6-18.629-59.52-5.281v1.473C38.58-.727 69.643-.66 72.47 15.477c.95 5.335-2.056 10.897-7.428 14.098v4.19c6.46-2.371 13.088-10.038 11.162-19.426zM36.36 44.998c-15.128 1.395-30.891-.802-33.102-12.625-1.078-5.825 1.58-12.005 5.1-15.845v-2.052C2.017 20.04-1.422 27.079.559 35.398c2.53 10.663 16.055 16.706 36.71 14.7 8.172-.794 18.866-3.423 26.304-7.507v-5.799c-6.754 4.02-17.916 7.342-27.213 8.206z"/></g><g><path fill="#8e919f" d="M62.347 11.79H58.38v17.66c0 2.068 1 3.87 3.966 4.156V11.79"/></g><g><path fill="#8e919f" d="M15.127 18.238h-3.974l-.004 11.536c0 2.08 1.005 3.879 3.978 4.161V18.238"/></g><g><path fill="#8e919f" d="M11.153 16.083h3.962v-3.758h-3.962z"/></g><g><path fill="#8e919f" d="M38.876 33.753c-3.21 0-4.568-2.235-4.568-4.432V14h3.933v4.24h2.961v3.172h-2.96v7.67c0 .893.422 1.396 1.357 1.396h1.603v3.276h-2.326"/></g><g><path fill="#8e919f" d="M52.169 24.542H46.11c.03-.688.125-1.126.378-1.69.44-.935 1.475-1.628 2.82-1.628zm-6.059 2.682h9.98v-1.42c0-4.443-2.414-7.832-6.612-7.832-4.128 0-7.28 2.895-7.28 8.01 0 5.989 3.605 8.04 7.367 8.04 2.883 0 4.514-.934 6.072-2.474l-2.43-2.313c-1.009.997-1.868 1.478-3.613 1.478-2.225 0-3.484-1.478-3.484-3.489z"/></g><g><path fill="#8e919f" d="M25.803 21.411c1.155 0 1.633.57 1.633 1.495v10.868h3.932V22.885c0-2.21-1.176-4.643-4.63-4.643l-8.122-.004v15.536h3.936V21.411h3.251"/></g><g><path fill="#8e919f" d="M66.931 12.96v.033c0 .18-.115.267-.37.267-.032 0-.21-.009-.252-.009v-.544h.253c.254 0 .37.062.37.253zm.382 1.35c.05 0 .067-.029.067-.058a.112.112 0 0 0-.012-.05l-.416-.706c.216-.066.357-.22.357-.503v-.033c0-.456-.29-.602-.78-.602-.142 0-.39.013-.486.022-.087.01-.12.053-.12.152v1.708c0 .033.029.07.065.07h.266c.047 0 .067-.037.067-.07v-.677h.184c.01 0 .045.015.057.032l.398.678c.009.02.034.037.059.037h.294zm.619-.943c0 .723-.597 1.308-1.316 1.308a1.3 1.3 0 0 1-1.3-1.308c0-.722.577-1.316 1.3-1.316.719 0 1.316.594 1.316 1.316zm.265 0c0-.872-.714-1.577-1.581-1.577a1.57 1.57 0 0 0-1.573 1.577c0 .873.697 1.58 1.573 1.58.867 0 1.581-.707 1.581-1.58z"/></g></g></g><g><g><g><path fill="#8e919f" d="M76.205 14.339c-3.588-17.516-37.6-18.629-59.52-5.281v1.473C38.58-.727 69.643-.66 72.47 15.477c.95 5.335-2.056 10.897-7.428 14.098v4.19c6.46-2.371 13.088-10.038 11.162-19.426zM36.36 44.998c-15.128 1.395-30.891-.802-33.102-12.625-1.078-5.825 1.58-12.005 5.1-15.845v-2.052C2.017 20.04-1.422 27.079.559 35.398c2.53 10.663 16.055 16.706 36.71 14.7 8.172-.794 18.866-3.423 26.304-7.507v-5.799c-6.754 4.02-17.916 7.342-27.213 8.206z"/></g><g><path fill="#8e919f" d="M62.347 11.79H58.38v17.66c0 2.068 1 3.87 3.966 4.156V11.79"/></g><g><path fill="#8e919f" d="M15.127 18.238h-3.974l-.004 11.536c0 2.08 1.005 3.879 3.978 4.161V18.238"/></g><g><path fill="#8e919f" d="M11.153 16.083h3.962v-3.758h-3.962z"/></g><g><path fill="#8e919f" d="M38.876 33.753c-3.21 0-4.568-2.235-4.568-4.432V14h3.933v4.24h2.961v3.172h-2.96v7.67c0 .893.422 1.396 1.357 1.396h1.603v3.276h-2.326"/></g><g><path fill="#8e919f" d="M52.169 24.542H46.11c.03-.688.125-1.126.378-1.69.44-.935 1.475-1.628 2.82-1.628zm-6.059 2.682h9.98v-1.42c0-4.443-2.414-7.832-6.612-7.832-4.128 0-7.28 2.895-7.28 8.01 0 5.989 3.605 8.04 7.367 8.04 2.883 0 4.514-.934 6.072-2.474l-2.43-2.313c-1.009.997-1.868 1.478-3.613 1.478-2.225 0-3.484-1.478-3.484-3.489z"/></g><g><path fill="#8e919f" d="M25.803 21.411c1.155 0 1.633.57 1.633 1.495v10.868h3.932V22.885c0-2.21-1.176-4.643-4.63-4.643l-8.122-.004v15.536h3.936V21.411h3.251"/></g><g><path fill="#8e919f" d="M66.931 12.96v.033c0 .18-.115.267-.37.267-.032 0-.21-.009-.252-.009v-.544h.253c.254 0 .37.062.37.253zm.382 1.35c.05 0 .067-.029.067-.058a.112.112 0 0 0-.012-.05l-.416-.706c.216-.066.357-.22.357-.503v-.033c0-.456-.29-.602-.78-.602-.142 0-.39.013-.486.022-.087.01-.12.053-.12.152v1.708c0 .033.029.07.065.07h.266c.047 0 .067-.037.067-.07v-.677h.184c.01 0 .045.015.057.032l.398.678c.009.02.034.037.059.037h.294zm.619-.943c0 .723-.597 1.308-1.316 1.308a1.3 1.3 0 0 1-1.3-1.308c0-.722.577-1.316 1.3-1.316.719 0 1.316.594 1.316 1.316zm.265 0c0-.872-.714-1.577-1.581-1.577a1.57 1.57 0 0 0-1.573 1.577c0 .873.697 1.58 1.573 1.58.867 0 1.581-.707 1.581-1.58z"/></g></g></g></g></svg>