<svg xmlns="http://www.w3.org/2000/svg" width="173" height="22" viewBox="0 0 173 22"><g><g><g><path fill="#8e919f" d="M151.776 17.882h14.883l-2.432 3.784h-12.726c-5.925 0-10.737-4.795-10.737-10.72 0-5.926 4.812-10.74 10.737-10.74h14.833l-2.45 3.786h-12.108c-3.169 0-5.858 2.14-6.68 5.052h20.073l-2.432 3.785h-17.64a6.935 6.935 0 0 0 6.679 5.051zm-50.473 3.783c-5.926 0-10.738-4.795-10.738-10.72 0-5.927 4.812-10.74 10.738-10.74h14.815l-2.415 3.785h-12.127a6.959 6.959 0 0 0-6.953 6.954c0 3.836 3.117 6.936 6.953 6.936h14.884l-2.431 3.784h-12.726zM22.928 17.88c3.838 0 6.946-3.1 6.946-6.935 0-3.837-3.108-6.954-6.946-6.954h-11.92c-3.837 0-6.947 3.117-6.947 6.954 0 3.836 3.11 6.935 6.946 6.935zm-12.196 3.785C4.808 21.665 0 16.87 0 10.945 0 5.017 4.808.204 10.732.204h12.473c5.926 0 10.73 4.813 10.73 10.74 0 5.925-4.805 10.72-10.73 10.72zm43.455-6.954h-1.884l8.29 6.954h-5.995l-12.32-10.738 11.635.017a3.465 3.465 0 0 0 3.46-3.477 3.465 3.465 0 0 0-3.46-3.476H40.256v17.673H36.13V.204h18.057a7.266 7.266 0 0 1 7.261 7.262c0 4.008-3.254 7.245-7.26 7.245zm87.519 3.17l-2.433 3.783h-18.822a2.11 2.11 0 0 1-1.507-.616 2.021 2.021 0 0 1-.6-1.438V.206h4.128V17.88zm-69.758-3.786H82.96l-5.824-9.368L66.45 21.665h-4.864l13-20.346a3.07 3.07 0 0 1 2.55-1.32c1.012 0 1.953.48 2.501 1.285l13.05 20.38h-4.864l-2.295-3.784h-11.15z"/></g><g><path fill="#8e919f" d="M170.393 2.295c.17-.017.343-.017.445-.171a.366.366 0 0 0 .07-.24.384.384 0 0 0-.207-.326c-.12-.05-.24-.05-.497-.05h-.153v.787zm-.19-1.233c.378 0 .533.017.704.085.478.154.53.583.53.754 0 .034 0 .12-.033.222a.696.696 0 0 1-.325.462c-.034.018-.052.035-.12.069l.616 1.113h-.6l-.548-1.027h-.376v1.027h-.532V1.061h.685zM168.03 2.5a2.41 2.41 0 0 1 2.398-2.415 2.413 2.413 0 0 1 2.416 2.415 2.413 2.413 0 0 1-2.416 2.415 2.409 2.409 0 0 1-2.398-2.415zm2.397 1.884c1.063 0 1.902-.84 1.902-1.902 0-1.045-.84-1.884-1.902-1.884-1.044 0-1.883.84-1.883 1.884 0 1.062.84 1.901 1.883 1.902z"/></g></g><g><g><path fill="#8e919f" d="M151.776 17.882h14.883l-2.432 3.784h-12.726c-5.925 0-10.737-4.795-10.737-10.72 0-5.926 4.812-10.74 10.737-10.74h14.833l-2.45 3.786h-12.108c-3.169 0-5.858 2.14-6.68 5.052h20.073l-2.432 3.785h-17.64a6.935 6.935 0 0 0 6.679 5.051zm-50.473 3.783c-5.926 0-10.738-4.795-10.738-10.72 0-5.927 4.812-10.74 10.738-10.74h14.815l-2.415 3.785h-12.127a6.959 6.959 0 0 0-6.953 6.954c0 3.836 3.117 6.936 6.953 6.936h14.884l-2.431 3.784h-12.726zM22.928 17.88c3.838 0 6.946-3.1 6.946-6.935 0-3.837-3.108-6.954-6.946-6.954h-11.92c-3.837 0-6.947 3.117-6.947 6.954 0 3.836 3.11 6.935 6.946 6.935zm-12.196 3.785C4.808 21.665 0 16.87 0 10.945 0 5.017 4.808.204 10.732.204h12.473c5.926 0 10.73 4.813 10.73 10.74 0 5.925-4.805 10.72-10.73 10.72zm43.455-6.954h-1.884l8.29 6.954h-5.995l-12.32-10.738 11.635.017a3.465 3.465 0 0 0 3.46-3.477 3.465 3.465 0 0 0-3.46-3.476H40.256v17.673H36.13V.204h18.057a7.266 7.266 0 0 1 7.261 7.262c0 4.008-3.254 7.245-7.26 7.245zm87.519 3.17l-2.433 3.783h-18.822a2.11 2.11 0 0 1-1.507-.616 2.021 2.021 0 0 1-.6-1.438V.206h4.128V17.88zm-69.758-3.786H82.96l-5.824-9.368L66.45 21.665h-4.864l13-20.346a3.07 3.07 0 0 1 2.55-1.32c1.012 0 1.953.48 2.501 1.285l13.05 20.38h-4.864l-2.295-3.784h-11.15z"/></g><g><path fill="#8e919f" d="M170.393 2.295c.17-.017.343-.017.445-.171a.366.366 0 0 0 .07-.24.384.384 0 0 0-.207-.326c-.12-.05-.24-.05-.497-.05h-.153v.787zm-.19-1.233c.378 0 .533.017.704.085.478.154.53.583.53.754 0 .034 0 .12-.033.222a.696.696 0 0 1-.325.462c-.034.018-.052.035-.12.069l.616 1.113h-.6l-.548-1.027h-.376v1.027h-.532V1.061h.685zM168.03 2.5a2.41 2.41 0 0 1 2.398-2.415 2.413 2.413 0 0 1 2.416 2.415 2.413 2.413 0 0 1-2.416 2.415 2.409 2.409 0 0 1-2.398-2.415zm2.397 1.884c1.063 0 1.902-.84 1.902-1.902 0-1.045-.84-1.884-1.902-1.884-1.044 0-1.883.84-1.883 1.884 0 1.062.84 1.901 1.883 1.902z"/></g></g></g></svg>