<svg xmlns="http://www.w3.org/2000/svg" width="127" height="41" viewBox="0 0 127 41"><g><g><g><path fill="#8e919f" d="M77.99 9.676h3.387v17.623H77.99zM56.635 20.699L53.94 13.2 51.314 20.7zm6.393 6.6h-4.077l-1.348-3.629h-7.291L48.999 27.3h-4.043l7.153-17.623h3.939zm51.97-4.147h3.145c.242 1.486 1.279 2.108 2.799 2.108 1.486 0 2.35-.588 2.35-1.486 0-1.21-1.624-1.348-3.387-1.693-2.28-.45-4.56-1.071-4.56-3.87 0-2.765 2.28-4.112 5.217-4.112 3.386 0 5.252 1.658 5.494 4.25h-3.075c-.138-1.382-1.037-1.866-2.488-1.866-1.313 0-2.212.484-2.212 1.417 0 1.105 1.693 1.21 3.525 1.59 2.142.448 4.527 1.036 4.527 4.042 0 2.557-2.212 4.112-5.391 4.112-3.697.035-5.77-1.762-5.943-4.492zm-4.319-3.628c-.103-1.624-1.175-2.73-2.73-2.73-1.796-.035-2.695 1.037-2.971 2.73zm-9.122 1.347c0-3.8 2.557-6.738 6.323-6.738 4.112 0 6.324 3.145 6.324 7.706h-9.295c.241 1.97 1.347 3.179 3.282 3.179 1.313 0 2.108-.587 2.488-1.59h3.352c-.484 2.281-2.488 4.182-5.805 4.182-4.25.069-6.67-2.903-6.67-6.739zm-9.607-4.63c.864-1.382 2.04-2.108 3.802-2.108 2.66 0 4.423 2.004 4.423 4.803V27.3h-3.387V19.42c0-1.382-.795-2.35-2.211-2.35-1.486 0-2.592 1.21-2.592 2.938v7.256h-3.42v-12.82h3.316v1.797zm-8.673-1.728h3.387v12.82h-3.387zm0-4.837h3.387v3.04h-3.387zm-10.643 6.876h.07c.76-1.451 1.658-2.211 3.144-2.211.38 0 .587.034.795.103v2.972h-.07c-2.211-.207-3.835.933-3.835 3.628V27.3h-3.386v-12.82h3.282zm-8.57-2.039h3.387v12.82h-3.386zm0-4.837h3.387v3.04h-3.386z"/></g><g><path fill="#8e919f" d="M28.852 13.166c-.186 0-.359.004-.577.009h-.002c-.449.01-1.127.025-2.6.025h-3.282l1.417-3.525h9.917c.191 0 .33.063.4.18.08.137.06.336-.054.546-.537 1.3-4.822 12.04-6.64 16.598l-.133.334h-4.077c.048-.123 4.851-12.368 5.632-14.167zM6.738 27.92l.518.139c1.03.232 2.76.415 3.94.415 1.47 0 2.675-.312 3.481-.903.348-.255.615-.554.795-.89.164-.307.25-.643.25-.972 0-.534-.121-1.012-.717-1.603-.534-.53-1.418-1.146-3.153-2.198-1.53-.956-2.54-1.832-3.179-2.756-.613-.886-.898-1.844-.898-3.015 0-.659.104-1.297.309-1.897.198-.579.49-1.123.87-1.619.739-.965 1.8-1.732 3.071-2.22 1.417-.515 3.38-.726 6.772-.726l2.903.035-1.416 3.525h-1.97c-2.102 0-3.49 0-4.216.242-.775.232-1.272.526-1.52.898-.223.318-.346.748-.346 1.21 0 .409.034.793.45 1.347.574.574 1.511 1.256 3.04 2.211 1.662 1.028 2.747 1.95 3.417 2.899.624.885.903 1.803.903 2.976 0 .882-.206 1.746-.61 2.567a6.837 6.837 0 0 1-1.762 2.21c-.792.666-1.736 1.187-2.803 1.55-1.141.388-2.4.584-3.74.584-1.75 0-4.045-.253-5.01-.553l-.52-.138c.126-.502.522-1.596.84-2.475v-.002l.007-.018c.118-.327.22-.609.294-.822zm21.433 10.99a20.25 20.25 0 0 0 6.435-4.338 20.233 20.233 0 0 0 4.337-6.436 20.156 20.156 0 0 0 1.59-7.887 20.156 20.156 0 0 0-3.455-11.327 20.356 20.356 0 0 0-5.467-5.467A20.156 20.156 0 0 0 20.284 0 20.194 20.194 0 0 0 8.946 3.455a20.416 20.416 0 0 0-5.48 5.467A20.101 20.101 0 0 0 0 20.25a20.103 20.103 0 0 0 3.466 11.327 20.386 20.386 0 0 0 5.48 5.468 20.197 20.197 0 0 0 11.338 3.455c2.736 0 5.39-.535 7.887-1.59z"/></g></g><g><g><path fill="#8e919f" d="M77.99 9.676h3.387v17.623H77.99zM56.635 20.699L53.94 13.2 51.314 20.7zm6.393 6.6h-4.077l-1.348-3.629h-7.291L48.999 27.3h-4.043l7.153-17.623h3.939zm51.97-4.147h3.145c.242 1.486 1.279 2.108 2.799 2.108 1.486 0 2.35-.588 2.35-1.486 0-1.21-1.624-1.348-3.387-1.693-2.28-.45-4.56-1.071-4.56-3.87 0-2.765 2.28-4.112 5.217-4.112 3.386 0 5.252 1.658 5.494 4.25h-3.075c-.138-1.382-1.037-1.866-2.488-1.866-1.313 0-2.212.484-2.212 1.417 0 1.105 1.693 1.21 3.525 1.59 2.142.448 4.527 1.036 4.527 4.042 0 2.557-2.212 4.112-5.391 4.112-3.697.035-5.77-1.762-5.943-4.492zm-4.319-3.628c-.103-1.624-1.175-2.73-2.73-2.73-1.796-.035-2.695 1.037-2.971 2.73zm-9.122 1.347c0-3.8 2.557-6.738 6.323-6.738 4.112 0 6.324 3.145 6.324 7.706h-9.295c.241 1.97 1.347 3.179 3.282 3.179 1.313 0 2.108-.587 2.488-1.59h3.352c-.484 2.281-2.488 4.182-5.805 4.182-4.25.069-6.67-2.903-6.67-6.739zm-9.607-4.63c.864-1.382 2.04-2.108 3.802-2.108 2.66 0 4.423 2.004 4.423 4.803V27.3h-3.387V19.42c0-1.382-.795-2.35-2.211-2.35-1.486 0-2.592 1.21-2.592 2.938v7.256h-3.42v-12.82h3.316v1.797zm-8.673-1.728h3.387v12.82h-3.387zm0-4.837h3.387v3.04h-3.387zm-10.643 6.876h.07c.76-1.451 1.658-2.211 3.144-2.211.38 0 .587.034.795.103v2.972h-.07c-2.211-.207-3.835.933-3.835 3.628V27.3h-3.386v-12.82h3.282zm-8.57-2.039h3.387v12.82h-3.386zm0-4.837h3.387v3.04h-3.386z"/></g><g><path fill="#8e919f" d="M28.852 13.166c-.186 0-.359.004-.577.009h-.002c-.449.01-1.127.025-2.6.025h-3.282l1.417-3.525h9.917c.191 0 .33.063.4.18.08.137.06.336-.054.546-.537 1.3-4.822 12.04-6.64 16.598l-.133.334h-4.077c.048-.123 4.851-12.368 5.632-14.167zM6.738 27.92l.518.139c1.03.232 2.76.415 3.94.415 1.47 0 2.675-.312 3.481-.903.348-.255.615-.554.795-.89.164-.307.25-.643.25-.972 0-.534-.121-1.012-.717-1.603-.534-.53-1.418-1.146-3.153-2.198-1.53-.956-2.54-1.832-3.179-2.756-.613-.886-.898-1.844-.898-3.015 0-.659.104-1.297.309-1.897.198-.579.49-1.123.87-1.619.739-.965 1.8-1.732 3.071-2.22 1.417-.515 3.38-.726 6.772-.726l2.903.035-1.416 3.525h-1.97c-2.102 0-3.49 0-4.216.242-.775.232-1.272.526-1.52.898-.223.318-.346.748-.346 1.21 0 .409.034.793.45 1.347.574.574 1.511 1.256 3.04 2.211 1.662 1.028 2.747 1.95 3.417 2.899.624.885.903 1.803.903 2.976 0 .882-.206 1.746-.61 2.567a6.837 6.837 0 0 1-1.762 2.21c-.792.666-1.736 1.187-2.803 1.55-1.141.388-2.4.584-3.74.584-1.75 0-4.045-.253-5.01-.553l-.52-.138c.126-.502.522-1.596.84-2.475v-.002l.007-.018c.118-.327.22-.609.294-.822zm21.433 10.99a20.25 20.25 0 0 0 6.435-4.338 20.233 20.233 0 0 0 4.337-6.436 20.156 20.156 0 0 0 1.59-7.887 20.156 20.156 0 0 0-3.455-11.327 20.356 20.356 0 0 0-5.467-5.467A20.156 20.156 0 0 0 20.284 0 20.194 20.194 0 0 0 8.946 3.455a20.416 20.416 0 0 0-5.48 5.467A20.101 20.101 0 0 0 0 20.25a20.103 20.103 0 0 0 3.466 11.327 20.386 20.386 0 0 0 5.48 5.468 20.197 20.197 0 0 0 11.338 3.455c2.736 0 5.39-.535 7.887-1.59z"/></g></g></g></svg>