<svg xmlns="http://www.w3.org/2000/svg" width="118" height="40" viewBox="0 0 118 40"><g><g><g><g><g><path fill="#8e919f" d="M55.879 2.941C88.334-2.781 115.97.1 117.605 9.378c.829 4.696-5.169 10.134-15.504 15.098.343-.412.53-.93.53-1.446v-4.088h-4.014v1.596h.783v2.298c0 .42-.394.758-.871.758-.475 0-.87-.339-.87-.758v-6.703c0-.418.395-.757.87-.757.477 0 .871.339.871.757v1.102h3.23v-.794c0-2.05-1.154-3.127-4.101-3.127-2.898 0-3.91 1.456-3.91 2.993v6.723c0 1.537 1.757 2.773 3.91 2.773.235 0 .467-.015.692-.043l-.005.042c-9.82 4.311-22.866 8.17-37.413 10.735C29.349 42.26 1.71 39.38.076 30.1c-.843-4.778 5.382-10.323 16.052-15.36-.06.166-.147.453-.182.656-.066.371-.108.84-.108 1.335 0 .902.131 1.679.32 2.034.193.376.803 1.192 2.555 2.02 1.714.81 1.802 1.096 1.906 1.488.026.091.039.188.039.289 0 .59-.463 1.068-1.033 1.068-.668 0-.94-.289-.94-1.068v-.9h-3.141v1.655c0 1.51 1.685 2.478 4.13 2.478 2.715 0 3.81-1.322 4.02-2.37.034-.243.057-.639.057-.973 0-.46-.011-.79-.072-1.24-.123-1.498-1.465-2.298-2.677-2.787-1.717-.695-2.178-1.084-2.305-1.706-.057-.182-.044-.56 0-.747.089-.313.488-.55.954-.55.532 0 .963.373.963.836v.974h2.948v-1.454c0-1.881-2.075-2.465-3.875-2.461-.077 0-.363.02-.44.02C28.975 9.162 41.716 5.44 55.88 2.941zM31.847 16.323l1.262 9.086h3.313L34.28 13.702h-5.087L27.052 25.41h3.31l1.265-9.086zm14.028 3.827l-1.08-6.448h-5.111L39.44 25.41h2.994v-9.006h.293l1.752 9.006h3.043l1.753-9.006h.29v9.006h2.995l-.244-11.707h-5.256l-.934 6.448zm30.675 2.594v-9.042h-3.413v9.127c0 .418-.392.758-.865.758s-.865-.34-.865-.758v-9.127h-3.414v9.042c0 1.692 1.922 3.05 4.28 3.05 2.354 0 4.277-1.358 4.277-3.05zm7.747-9.042h-3.754v11.707h2.999l-.174-7.205h.225l3.32 7.205h3.57V13.702h-3l.173 7.205h-.224zM60.22 23.629c-.684 0-.964-.289-.964-1.068v-.9h-3.219v1.655c0 1.51 1.728 2.478 4.235 2.478 2.781 0 3.904-1.322 4.119-2.37.034-.243.059-.639.059-.973 0-.46-.013-.79-.075-1.24-.124-1.498-1.502-2.298-2.744-2.787-1.759-.695-2.232-1.084-2.363-1.706-.057-.182-.046-.56 0-.747.094-.313.502-.55.979-.55.546 0 .987.373.987.836v.974h3.022v-1.454c0-1.881-2.129-2.465-3.972-2.461-1.975.005-3.582.611-3.922 2.165-.068.37-.11.84-.11 1.336 0 .9.133 1.677.326 2.032.201.377.91 1.107 2.708 1.934 1.755.81 1.847 1.097 1.953 1.488a1.063 1.063 0 0 1-1.019 1.357z"/></g></g></g></g><g><g><g><g><path fill="#8e919f" d="M55.879 2.941C88.334-2.781 115.97.1 117.605 9.378c.829 4.696-5.169 10.134-15.504 15.098.343-.412.53-.93.53-1.446v-4.088h-4.014v1.596h.783v2.298c0 .42-.394.758-.871.758-.475 0-.87-.339-.87-.758v-6.703c0-.418.395-.757.87-.757.477 0 .871.339.871.757v1.102h3.23v-.794c0-2.05-1.154-3.127-4.101-3.127-2.898 0-3.91 1.456-3.91 2.993v6.723c0 1.537 1.757 2.773 3.91 2.773.235 0 .467-.015.692-.043l-.005.042c-9.82 4.311-22.866 8.17-37.413 10.735C29.349 42.26 1.71 39.38.076 30.1c-.843-4.778 5.382-10.323 16.052-15.36-.06.166-.147.453-.182.656-.066.371-.108.84-.108 1.335 0 .902.131 1.679.32 2.034.193.376.803 1.192 2.555 2.02 1.714.81 1.802 1.096 1.906 1.488.026.091.039.188.039.289 0 .59-.463 1.068-1.033 1.068-.668 0-.94-.289-.94-1.068v-.9h-3.141v1.655c0 1.51 1.685 2.478 4.13 2.478 2.715 0 3.81-1.322 4.02-2.37.034-.243.057-.639.057-.973 0-.46-.011-.79-.072-1.24-.123-1.498-1.465-2.298-2.677-2.787-1.717-.695-2.178-1.084-2.305-1.706-.057-.182-.044-.56 0-.747.089-.313.488-.55.954-.55.532 0 .963.373.963.836v.974h2.948v-1.454c0-1.881-2.075-2.465-3.875-2.461-.077 0-.363.02-.44.02C28.975 9.162 41.716 5.44 55.88 2.941zM31.847 16.323l1.262 9.086h3.313L34.28 13.702h-5.087L27.052 25.41h3.31l1.265-9.086zm14.028 3.827l-1.08-6.448h-5.111L39.44 25.41h2.994v-9.006h.293l1.752 9.006h3.043l1.753-9.006h.29v9.006h2.995l-.244-11.707h-5.256l-.934 6.448zm30.675 2.594v-9.042h-3.413v9.127c0 .418-.392.758-.865.758s-.865-.34-.865-.758v-9.127h-3.414v9.042c0 1.692 1.922 3.05 4.28 3.05 2.354 0 4.277-1.358 4.277-3.05zm7.747-9.042h-3.754v11.707h2.999l-.174-7.205h.225l3.32 7.205h3.57V13.702h-3l.173 7.205h-.224zM60.22 23.629c-.684 0-.964-.289-.964-1.068v-.9h-3.219v1.655c0 1.51 1.728 2.478 4.235 2.478 2.781 0 3.904-1.322 4.119-2.37.034-.243.059-.639.059-.973 0-.46-.013-.79-.075-1.24-.124-1.498-1.502-2.298-2.744-2.787-1.759-.695-2.232-1.084-2.363-1.706-.057-.182-.046-.56 0-.747.094-.313.502-.55.979-.55.546 0 .987.373.987.836v.974h3.022v-1.454c0-1.881-2.129-2.465-3.972-2.461-1.975.005-3.582.611-3.922 2.165-.068.37-.11.84-.11 1.336 0 .9.133 1.677.326 2.032.201.377.91 1.107 2.708 1.934 1.755.81 1.847 1.097 1.953 1.488a1.063 1.063 0 0 1-1.019 1.357z"/></g></g></g></g></g></svg>