<svg xmlns="http://www.w3.org/2000/svg" width="128" height="27" viewBox="0 0 128 27"><g><g><path fill="#8e919f" d="M123.406 17.465c0 3.162-2.336 4.995-4.635 4.995H99.366v-1.833h18.47c.899 0 2.408-1.69 2.3-3.198-.108-1.402-1.365-2.731-2.3-2.731h-16.638c-.898 0-1.832-.935-1.832-1.833V6.037h23.573V7.87h-20.34v4.096c0 .432.468.899.935.899h15.237c1.832 0 4.635 1.365 4.635 4.6zm-91.67-.252c.61.216 1.186.467 1.689.898.287.252.539.611.539 1.007 0 .359-.144.646-.36.898-.395.467-.934.755-1.473 1.042-.575.288-1.186.467-1.797.683-3.701 1.33-7.367 2.623-11.068 3.953v-3.055c0-.036-.036-.108.036-.108 2.803-1.006 5.606-1.976 8.409-2.982.395-.144.79-.252 1.114-.503.108-.108.251-.252.18-.432-.036-.143-.216-.215-.36-.287-.431-.18-.898-.216-1.33-.216-.718 0-1.437.108-2.084.324-2.012.683-3.988 1.401-6 2.084v-3.306c1.473-.503 2.982-.79 4.491-.97.54-.072 1.114-.072 1.653-.108 1.833 0 3.63.216 5.355.755.323.071.682.215 1.006.323zm34.03-11.14c2.48.324 3.737 2.048 3.773 4.276 0 2.444-1.509 4.349-4.6 4.349H51.25c-1.294 0-2.157 1.042-2.157 2.587v4.78c0 .035-.036.107-.072.107H45.68c-.036 0-.072-.036-.072-.108v-4.78c0-2.443 1.653-4.311 3.88-4.311h14.267c1.545 0 2.264-1.078 2.264-2.624 0-1.545-.719-2.623-2.264-2.623h-18.04c-.071 0-.107-.036-.107-.108V6.073zm30.653 0v1.545c0 .036-.036.108-.108.108h-9.487c-1.545 0-2.264 1.078-2.264 2.623v7.51c0 2.408-1.473 4.277-4.42 4.349H68.785c-.036 0-.072-.036-.072-.108v-1.51c0-.071.036-.107.108-.107h9.99c1.509 0 2.264-1.078 2.264-2.623v-7.51c0-2.229 1.221-3.953 3.737-4.277zM33.1 24.723c-.072-.287-.287-.503-.539-.646a1.265 1.265 0 0 0-.719-.108 1.21 1.21 0 0 0-.61.395c-.18.252-.252.54-.18.827.072.251.216.503.467.646.36.216.863.216 1.186-.035.36-.18.503-.683.395-1.079zm0-.467c.288.36.324.899.144 1.294a1.322 1.322 0 0 1-1.15.719 1.3 1.3 0 0 1-1.078-.611 1.339 1.339 0 0 1-.072-1.114c.18-.396.575-.719 1.006-.755.432-.072.863.108 1.15.467zM5.898 19.944c-.251.072-.539.18-.754.431a.4.4 0 0 0-.108.36c.036.18.216.251.36.323.43.18.898.18 1.329.216.503 0 1.006-.036 1.473-.144.36-.072.647-.18.97-.288.827-.287 1.618-.574 2.444-.862v2.839c-1.006.18-2.012.323-3.019.323-2.048.036-4.096-.251-6.037-.898-.646-.18-1.257-.431-1.796-.827a2.035 2.035 0 0 1-.683-.862c-.108-.323-.108-.647.036-.934.108-.288.36-.503.61-.683.576-.431 1.222-.719 1.905-1.006.575-.252 1.186-.431 1.761-.647 2.408-.863 4.815-1.725 7.223-2.552v3.199c-1.905.647-3.81 1.33-5.714 2.012zM19.841 4.528a1.115 1.115 0 0 0-.647-.323.714.714 0 0 0-.647.251c-.251.323-.323.719-.323 1.114v20.411c-1.833-.575-3.701-1.15-5.534-1.725V0c1.473.288 2.947.683 4.384 1.078l2.48.755c1.293.395 2.587.862 3.737 1.545.503.323 1.006.683 1.437 1.114a6.006 6.006 0 0 1 1.114 1.581c.503 1.042.683 2.228.719 3.378.036.755.036 1.51-.108 2.264a4.937 4.937 0 0 1-.683 1.833c-.323.467-.754.898-1.257 1.185-.503.288-1.078.396-1.653.396-.827 0-1.69-.252-2.444-.611V6.9c0-.432.036-.899-.072-1.366a2.215 2.215 0 0 0-.503-1.006zM32.383 24.58c-.036-.072-.108-.072-.18-.072h-.431v.395h.395c.072 0 .144 0 .18-.072.107-.072.107-.18.036-.251zm.359 1.114h-.288c-.071-.144 0-.324-.071-.467 0-.072-.072-.108-.144-.108h-.467v.575h-.252v-1.402h.683c.144 0 .287.036.36.144.107.108.107.252.071.395 0 .072-.072.144-.144.18.036.036.108.072.108.144.072.107.036.251.072.395.036.036.036.108.072.144zm94.76-4.852h.36v1.797h-.215v-1.473l-.504 1.473h-.251l-.503-1.473v1.473h-.252v-1.797h.324l.539 1.546.467-1.474.036-.107zm-1.616-.035v.215h-.575v1.617h-.252v-1.617h-.575v-.215z"/></g><g><path fill="#8e919f" d="M123.406 17.465c0 3.162-2.336 4.995-4.635 4.995H99.366v-1.833h18.47c.899 0 2.408-1.69 2.3-3.198-.108-1.402-1.365-2.731-2.3-2.731h-16.638c-.898 0-1.832-.935-1.832-1.833V6.037h23.573V7.87h-20.34v4.096c0 .432.468.899.935.899h15.237c1.832 0 4.635 1.365 4.635 4.6zm-91.67-.252c.61.216 1.186.467 1.689.898.287.252.539.611.539 1.007 0 .359-.144.646-.36.898-.395.467-.934.755-1.473 1.042-.575.288-1.186.467-1.797.683-3.701 1.33-7.367 2.623-11.068 3.953v-3.055c0-.036-.036-.108.036-.108 2.803-1.006 5.606-1.976 8.409-2.982.395-.144.79-.252 1.114-.503.108-.108.251-.252.18-.432-.036-.143-.216-.215-.36-.287-.431-.18-.898-.216-1.33-.216-.718 0-1.437.108-2.084.324-2.012.683-3.988 1.401-6 2.084v-3.306c1.473-.503 2.982-.79 4.491-.97.54-.072 1.114-.072 1.653-.108 1.833 0 3.63.216 5.355.755.323.071.682.215 1.006.323zm34.03-11.14c2.48.324 3.737 2.048 3.773 4.276 0 2.444-1.509 4.349-4.6 4.349H51.25c-1.294 0-2.157 1.042-2.157 2.587v4.78c0 .035-.036.107-.072.107H45.68c-.036 0-.072-.036-.072-.108v-4.78c0-2.443 1.653-4.311 3.88-4.311h14.267c1.545 0 2.264-1.078 2.264-2.624 0-1.545-.719-2.623-2.264-2.623h-18.04c-.071 0-.107-.036-.107-.108V6.073zm30.653 0v1.545c0 .036-.036.108-.108.108h-9.487c-1.545 0-2.264 1.078-2.264 2.623v7.51c0 2.408-1.473 4.277-4.42 4.349H68.785c-.036 0-.072-.036-.072-.108v-1.51c0-.071.036-.107.108-.107h9.99c1.509 0 2.264-1.078 2.264-2.623v-7.51c0-2.229 1.221-3.953 3.737-4.277zM33.1 24.723c-.072-.287-.287-.503-.539-.646a1.265 1.265 0 0 0-.719-.108 1.21 1.21 0 0 0-.61.395c-.18.252-.252.54-.18.827.072.251.216.503.467.646.36.216.863.216 1.186-.035.36-.18.503-.683.395-1.079zm0-.467c.288.36.324.899.144 1.294a1.322 1.322 0 0 1-1.15.719 1.3 1.3 0 0 1-1.078-.611 1.339 1.339 0 0 1-.072-1.114c.18-.396.575-.719 1.006-.755.432-.072.863.108 1.15.467zM5.898 19.944c-.251.072-.539.18-.754.431a.4.4 0 0 0-.108.36c.036.18.216.251.36.323.43.18.898.18 1.329.216.503 0 1.006-.036 1.473-.144.36-.072.647-.18.97-.288.827-.287 1.618-.574 2.444-.862v2.839c-1.006.18-2.012.323-3.019.323-2.048.036-4.096-.251-6.037-.898-.646-.18-1.257-.431-1.796-.827a2.035 2.035 0 0 1-.683-.862c-.108-.323-.108-.647.036-.934.108-.288.36-.503.61-.683.576-.431 1.222-.719 1.905-1.006.575-.252 1.186-.431 1.761-.647 2.408-.863 4.815-1.725 7.223-2.552v3.199c-1.905.647-3.81 1.33-5.714 2.012zM19.841 4.528a1.115 1.115 0 0 0-.647-.323.714.714 0 0 0-.647.251c-.251.323-.323.719-.323 1.114v20.411c-1.833-.575-3.701-1.15-5.534-1.725V0c1.473.288 2.947.683 4.384 1.078l2.48.755c1.293.395 2.587.862 3.737 1.545.503.323 1.006.683 1.437 1.114a6.006 6.006 0 0 1 1.114 1.581c.503 1.042.683 2.228.719 3.378.036.755.036 1.51-.108 2.264a4.937 4.937 0 0 1-.683 1.833c-.323.467-.754.898-1.257 1.185-.503.288-1.078.396-1.653.396-.827 0-1.69-.252-2.444-.611V6.9c0-.432.036-.899-.072-1.366a2.215 2.215 0 0 0-.503-1.006zM32.383 24.58c-.036-.072-.108-.072-.18-.072h-.431v.395h.395c.072 0 .144 0 .18-.072.107-.072.107-.18.036-.251zm.359 1.114h-.288c-.071-.144 0-.324-.071-.467 0-.072-.072-.108-.144-.108h-.467v.575h-.252v-1.402h.683c.144 0 .287.036.36.144.107.108.107.252.071.395 0 .072-.072.144-.144.18.036.036.108.072.108.144.072.107.036.251.072.395.036.036.036.108.072.144zm94.76-4.852h.36v1.797h-.215v-1.473l-.504 1.473h-.251l-.503-1.473v1.473h-.252v-1.797h.324l.539 1.546.467-1.474.036-.107zm-1.616-.035v.215h-.575v1.617h-.252v-1.617h-.575v-.215z"/></g></g></svg>