<svg xmlns="http://www.w3.org/2000/svg" width="157" height="31" viewBox="0 0 157 31"><g><g><g><path fill="#8e919f" d="M27.259 23.237l9.1-5.81-9.1-5.809 9.1-5.809L27.258 0l-9.06 5.81 9.1 5.768-9.1 5.809zm-9.1 7.637l9.1-5.81-9.1-5.808-9.1 5.809zM9.099 0L0 5.81l9.1 5.768L0 17.387l9.1 5.85 9.1-5.81-9.1-5.809 9.1-5.809z"/></g><g><path fill="#8e919f" d="M140.355 25.024h4.753l3.494-5.159 3.574 5.16h4.591l-5.85-8.126 5.566-7.434h-4.631l-3.21 4.713-3.128-4.713h-4.712l5.484 7.516zm-7.272-3.087c-2.315 0-3.778-1.585-3.778-4.388v-.406c0-3.047 1.503-4.63 3.778-4.63 2.316 0 3.778 1.746 3.778 4.63v.406c0 2.844-1.462 4.388-3.778 4.388zm0 3.575c4.672 0 7.881-2.763 7.881-7.881v-.447c0-5.24-3.25-8.084-7.88-8.084-4.55 0-7.882 2.843-7.882 8.084v.447c0 5.118 2.844 7.84 7.881 7.88zm-17.55-3.575c-2.233 0-3.737-1.706-3.737-4.59v-.326c0-2.721 1.544-4.509 3.778-4.509 2.194 0 3.738 1.625 3.738 4.469v.406c0 3.087-1.422 4.59-3.778 4.55zm-3.777.284c.812 2.031 2.519 3.25 5.16 3.331 3.98 0 6.58-2.965 6.58-8.124v-.488c0-5.2-2.762-7.759-6.5-7.8-2.478 0-4.225 1.097-5.078 3.128V4.265h-3.98v20.8h3.493l.325-2.844zm-13.893-.203c-2.275 0-3.738-1.747-3.738-4.51v-.284c0-2.884 1.503-4.63 3.778-4.63 2.153 0 3.738 1.543 3.738 4.63v.325c0 2.925-1.463 4.428-3.778 4.47zM90.266 9.465l-.081 21.043h3.98v-7.88c.854 1.787 2.52 2.884 4.998 2.884 3.696 0 6.58-2.722 6.58-7.84v-.448c0-5.28-2.6-8.124-6.58-8.124-2.56 0-4.307 1.34-5.12 3.33l-.405-2.965zM80.19 21.937c-2.315 0-3.778-1.585-3.778-4.388v-.406c0-3.047 1.503-4.63 3.778-4.63 2.316 0 3.778 1.746 3.778 4.63v.406c0 2.844-1.462 4.388-3.778 4.388zm.04 3.575c4.754 0 7.882-2.763 7.882-7.881v-.447c0-5.24-3.25-8.084-7.881-8.084-4.55 0-7.881 2.843-7.881 8.084v.447c0 5.118 2.844 7.84 7.88 7.88zM61.546 9.465h.04v-.04h-.04zm.04 0v15.6h4.063v-7.15c0-3.29.812-4.469 4.144-4.469h1.706V9.303h-1.016c-2.884 0-4.51 1.3-5.118 3.778l-.529-3.616zm-11.008-.162c2.721 0 4.59 1.747 4.59 5.606v1.015c0 3.86-1.787 5.607-4.469 5.607H47.57V9.303zm-7.11 15.762h7.516c4.793 0 8.409-2.803 8.409-9.06v-1.3c0-6.174-3.86-8.896-8.572-8.896h-7.353z"/></g></g><g><g><path fill="#8e919f" d="M27.259 23.237l9.1-5.81-9.1-5.809 9.1-5.809L27.258 0l-9.06 5.81 9.1 5.768-9.1 5.809zm-9.1 7.637l9.1-5.81-9.1-5.808-9.1 5.809zM9.099 0L0 5.81l9.1 5.768L0 17.387l9.1 5.85 9.1-5.81-9.1-5.809 9.1-5.809z"/></g><g><path fill="#8e919f" d="M140.355 25.024h4.753l3.494-5.159 3.574 5.16h4.591l-5.85-8.126 5.566-7.434h-4.631l-3.21 4.713-3.128-4.713h-4.712l5.484 7.516zm-7.272-3.087c-2.315 0-3.778-1.585-3.778-4.388v-.406c0-3.047 1.503-4.63 3.778-4.63 2.316 0 3.778 1.746 3.778 4.63v.406c0 2.844-1.462 4.388-3.778 4.388zm0 3.575c4.672 0 7.881-2.763 7.881-7.881v-.447c0-5.24-3.25-8.084-7.88-8.084-4.55 0-7.882 2.843-7.882 8.084v.447c0 5.118 2.844 7.84 7.881 7.88zm-17.55-3.575c-2.233 0-3.737-1.706-3.737-4.59v-.326c0-2.721 1.544-4.509 3.778-4.509 2.194 0 3.738 1.625 3.738 4.469v.406c0 3.087-1.422 4.59-3.778 4.55zm-3.777.284c.812 2.031 2.519 3.25 5.16 3.331 3.98 0 6.58-2.965 6.58-8.124v-.488c0-5.2-2.762-7.759-6.5-7.8-2.478 0-4.225 1.097-5.078 3.128V4.265h-3.98v20.8h3.493l.325-2.844zm-13.893-.203c-2.275 0-3.738-1.747-3.738-4.51v-.284c0-2.884 1.503-4.63 3.778-4.63 2.153 0 3.738 1.543 3.738 4.63v.325c0 2.925-1.463 4.428-3.778 4.47zM90.266 9.465l-.081 21.043h3.98v-7.88c.854 1.787 2.52 2.884 4.998 2.884 3.696 0 6.58-2.722 6.58-7.84v-.448c0-5.28-2.6-8.124-6.58-8.124-2.56 0-4.307 1.34-5.12 3.33l-.405-2.965zM80.19 21.937c-2.315 0-3.778-1.585-3.778-4.388v-.406c0-3.047 1.503-4.63 3.778-4.63 2.316 0 3.778 1.746 3.778 4.63v.406c0 2.844-1.462 4.388-3.778 4.388zm.04 3.575c4.754 0 7.882-2.763 7.882-7.881v-.447c0-5.24-3.25-8.084-7.881-8.084-4.55 0-7.881 2.843-7.881 8.084v.447c0 5.118 2.844 7.84 7.88 7.88zM61.546 9.465h.04v-.04h-.04zm.04 0v15.6h4.063v-7.15c0-3.29.812-4.469 4.144-4.469h1.706V9.303h-1.016c-2.884 0-4.51 1.3-5.118 3.778l-.529-3.616zm-11.008-.162c2.721 0 4.59 1.747 4.59 5.606v1.015c0 3.86-1.787 5.607-4.469 5.607H47.57V9.303zm-7.11 15.762h7.516c4.793 0 8.409-2.803 8.409-9.06v-1.3c0-6.174-3.86-8.896-8.572-8.896h-7.353z"/></g></g></g></svg>