<?xml version="1.0" encoding="utf-8"?>
<!-- Generator: Adobe Illustrator 24.1.2, SVG Export Plug-In . SVG Version: 6.00 Build 0)  -->
<svg version="1.1" id="Layer_1" xmlns="http://www.w3.org/2000/svg" xmlns:xlink="http://www.w3.org/1999/xlink" x="0px" y="0px"
	 viewBox="0 0 11.8 11.3" style="enable-background:new 0 0 11.8 11.3;" xml:space="preserve">
<style type="text/css">
	.st0{fill:#00FFD8;}
</style>
<g>
	<g>
		<g>
			<g>
				<path class="st0" d="M5.6,0.2C5.7,0,5.9-0.1,6.1,0c0.1,0,0.1,0.1,0.2,0.2l1.4,2.9c0.1,0.3,0.4,0.5,0.7,0.5L11.5,4
					c0.2,0,0.3,0.2,0.3,0.4c0,0.1,0,0.2-0.1,0.2L9.4,6.9C9.2,7.1,9.1,7.4,9.2,7.7l0.5,3.2c0,0.2-0.1,0.4-0.3,0.4c-0.1,0-0.2,0-0.2,0
					L6.4,9.8c-0.3-0.1-0.6-0.1-0.9,0l-2.8,1.5c-0.2,0.1-0.4,0-0.5-0.2c0-0.1-0.1-0.2,0-0.2l0.5-3.2c0.1-0.3,0-0.6-0.3-0.8L0.1,4.7
					C0,4.5,0,4.3,0.1,4.1C0.2,4.1,0.2,4.1,0.3,4l3.2-0.5c0.3,0,0.6-0.2,0.7-0.5L5.6,0.2z"/>
			</g>
		</g>
	</g>
</g>
</svg>
