<?xml version="1.0" encoding="utf-8"?>
<!-- Generator: Adobe Illustrator 24.1.2, SVG Export Plug-In . SVG Version: 6.00 Build 0)  -->
<svg version="1.1" id="Layer_1" xmlns="http://www.w3.org/2000/svg" xmlns:xlink="http://www.w3.org/1999/xlink" x="0px" y="0px"
	 viewBox="0 0 12.8 12.3" style="enable-background:new 0 0 12.8 12.3;" xml:space="preserve">
<style type="text/css">
	.st0{fill:none;stroke:#FFFFFF;stroke-miterlimit:20;}
</style>
<g>
	<g>
		<g>
			<g>
				<path class="st0" d="M6.1,0.7c0.1-0.2,0.3-0.3,0.5-0.2c0.1,0,0.1,0.1,0.2,0.2l1.4,2.9C8.3,3.9,8.6,4,8.9,4.1L12,4.5
					c0.2,0,0.3,0.2,0.3,0.4c0,0.1,0,0.2-0.1,0.2L9.9,7.4C9.7,7.6,9.6,7.9,9.7,8.2l0.5,3.2c0,0.2-0.1,0.4-0.3,0.4c-0.1,0-0.2,0-0.2,0
					l-2.8-1.5c-0.3-0.1-0.6-0.1-0.9,0l-2.8,1.5c-0.2,0.1-0.4,0-0.5-0.2c0-0.1-0.1-0.2,0-0.2l0.5-3.2c0.1-0.3,0-0.6-0.3-0.8L0.6,5.2
					C0.5,5,0.5,4.8,0.6,4.6c0.1-0.1,0.1-0.1,0.2-0.1L4,4.1c0.3,0,0.6-0.2,0.7-0.5L6.1,0.7z"/>
			</g>
		</g>
	</g>
</g>
</svg>
