<?xml version="1.0" encoding="utf-8"?>
<!-- Generator: Adobe Illustrator 24.1.2, SVG Export Plug-In . SVG Version: 6.00 Build 0)  -->
<svg version="1.1" id="Layer_1" xmlns="http://www.w3.org/2000/svg" xmlns:xlink="http://www.w3.org/1999/xlink" x="0px" y="0px"
	 viewBox="0 0 15 18" style="enable-background:new 0 0 15 18;" xml:space="preserve">
<style type="text/css">
	.st0{fill:#00FFD8;}
</style>
<g>
	<g>
		<path class="st0" d="M7.4,8.7c1.2,0,2.3-0.4,3.1-1.3c0.8-0.8,1.3-1.9,1.3-3.1c0-1.2-0.4-2.2-1.3-3.1C9.7,0.4,8.5,0,7.4,0
			C6.2,0,5.1,0.4,4.3,1.3C3.5,2.1,3,3.2,3.1,4.3c0,1.2,0.4,2.2,1.3,3.1C5.1,8.2,6.2,8.7,7.4,8.7L7.4,8.7z"/>
	</g>
	<g>
		<path class="st0" d="M15,13.8c0-0.4-0.1-0.8-0.1-1.1c-0.1-0.4-0.2-0.8-0.3-1.1c-0.1-0.4-0.3-0.7-0.5-1.1c-0.2-0.3-0.4-0.7-0.7-0.9
			c-0.3-0.3-0.6-0.5-1-0.6c-0.4-0.2-0.9-0.2-1.3-0.2c-0.2,0-0.4,0.1-0.7,0.3c-0.2,0.1-0.5,0.3-0.7,0.5C9.4,9.6,9.1,9.8,8.7,9.9
			c-0.4,0.1-0.8,0.2-1.2,0.2c-0.4,0-0.8-0.1-1.2-0.2C6,9.8,5.7,9.6,5.4,9.5L4.7,9C4.3,8.8,4.1,8.7,4,8.7c-0.5,0-0.9,0.1-1.3,0.2
			c-0.4,0.1-0.7,0.4-1,0.6c-0.3,0.3-0.5,0.6-0.7,0.9c-0.2,0.3-0.4,0.7-0.5,1.1c-0.1,0.4-0.2,0.8-0.3,1.1c-0.1,0.4-0.1,0.8-0.1,1.1
			c0,0.3,0,0.7,0,1.1c0,0.9,0.3,1.7,0.9,2.3C1.5,17.7,2.2,18,3.2,18h8.7c0.9,0,1.7-0.3,2.3-0.8c0.6-0.6,0.9-1.3,0.9-2.3
			C15,14.5,15,14.2,15,13.8z"/>
	</g>
</g>
</svg>
